<svg viewBox="0 0 20 20" xmlns="http://www.w3.org/2000/svg"><path d="M10 13a3 3 0 1 0 0-6 3 3 0 0 0 0 6zM9 4c0-.552.444-1 1-1 .552 0 1 .444 1 1 0 .552-.444 1-1 1-.552 0-1-.444-1-1zm4.536 1.05a.998.998 0 0 1 1.414 0 .998.998 0 0 1 0 1.414.998.998 0 0 1-1.414 0 .998.998 0 0 1 0-1.414zM16 9c.552 0 1 .444 1 1 0 .552-.444 1-1 1-.552 0-1-.444-1-1 0-.552.444-1 1-1zm-1.05 4.536a.998.998 0 0 1 0 1.414.998.998 0 0 1-1.414 0 .998.998 0 0 1 0-1.414.998.998 0 0 1 1.414 0zM11 16c0 .552-.444 1-1 1-.552 0-1-.444-1-1 0-.552.444-1 1-1 .552 0 1 .444 1 1zm-4.536-1.05a.998.998 0 0 1-1.414 0 .998.998 0 0 1 0-1.414.998.998 0 0 1 1.414 0 .998.998 0 0 1 0 1.414zM4 11c-.552 0-1-.444-1-1 0-.552.444-1 1-1 .552 0 1 .444 1 1 0 .552-.444 1-1 1zm1.05-4.536a.998.998 0 0 1 0-1.414.998.998 0 0 1 1.414 0 .998.998 0 0 1 0 1.414.998.998 0 0 1-1.414 0z" fill-rule="evenodd"/></svg>