<svg viewBox="0 0 20 20" xmlns="http://www.w3.org/2000/svg"><path d="M10 14a4 4 0 1 0 0-8 4 4 0 0 0 0 8zM9 1.01a1 1 0 1 1 2 0v1.98a1 1 0 1 1-2 0V1.01zm6.65 1.926a1 1 0 1 1 1.414 1.414l-1.4 1.4a1 1 0 1 1-1.414-1.414l1.4-1.4zM18.99 9a1 1 0 1 1 0 2h-1.98a1 1 0 1 1 0-2h1.98zm-1.926 6.65a1 1 0 1 1-1.414 1.414l-1.4-1.4a1 1 0 1 1 1.414-1.414l1.4 1.4zM11 18.99a1 1 0 1 1-2 0v-1.98a1 1 0 1 1 2 0v1.98zm-6.65-1.926a1 1 0 1 1-1.414-1.414l1.4-1.4a1 1 0 1 1 1.414 1.414l-1.4 1.4zM1.01 11a1 1 0 1 1 0-2h1.98a1 1 0 1 1 0 2H1.01zm1.926-6.65A1 1 0 1 1 4.35 2.936l1.4 1.4A1 1 0 1 1 4.337 5.75l-1.4-1.4z" fill-rule="evenodd"/></svg>