<svg viewBox="0 0 20 20" xmlns="http://www.w3.org/2000/svg"><path d="M15.305 14.89c.308-.58.523-1.216.626-1.89h3.066A.994.994 0 0 0 20 12a1 1 0 0 0-1.003-1H16V8.414l3.072-3.072a1.003 1.003 0 0 0 0-1.413.997.997 0 0 0-1.414-.001l-2.097 2.097H4.439L2.342 3.928a1.003 1.003 0 0 0-1.413 0 .997.997 0 0 0-.001 1.414L4 8.414V11H1.003A.994.994 0 0 0 0 12a1 1 0 0 0 1.003 1h3.066c.103.673.319 1.31.627 1.89l-2.768 2.768a1.003 1.003 0 0 0 0 1.413.997.997 0 0 0 1.414.001l2.585-2.584A5.985 5.985 0 0 0 9 18V9.04a1 1 0 0 1 1-1.007c.552 0 1 .458 1 1.007V18a5.989 5.989 0 0 0 3.074-1.512l2.584 2.584c.386.386 1.023.39 1.413 0a.997.997 0 0 0 .001-1.414l-2.767-2.768zM15 5A5 5 0 0 0 5 5h10z" fill-rule="evenodd"/></svg>