<svg viewBox="0 0 20 20" xmlns="http://www.w3.org/2000/svg"><path d="M2.843 13.578a8.034 8.034 0 0 0 3.579 3.579l1.341-2.684a5.021 5.021 0 0 1-2.236-2.236l-2.684 1.341zm0-7.156a8.034 8.034 0 0 1 3.579-3.579l1.341 2.684a5.021 5.021 0 0 0-2.236 2.236L2.843 6.422zm10.735 10.735a8.034 8.034 0 0 0 3.579-3.579l-2.684-1.341a5.021 5.021 0 0 1-2.236 2.236l1.341 2.684zm3.579-10.735a8.034 8.034 0 0 0-3.579-3.579l-1.341 2.684a5.021 5.021 0 0 1 2.236 2.236l2.684-1.341zm-5.99-1.285zM10 20c5.523 0 10-4.477 10-10S15.523 0 10 0 0 4.477 0 10s4.477 10 10 10zm0-7a3 3 0 1 0 0-6 3 3 0 0 0 0 6z" fill-rule="evenodd"/></svg>