<svg xmlns="http://www.w3.org/2000/svg" xmlns:xlink="http://www.w3.org/1999/xlink"><symbol viewBox="0 0 20 20" id="zondicon-add-outline"><path d="M11 9V5H9v4H5v2h4v4h2v-4h4V9h-4zm-1 11c5.523 0 10-4.477 10-10S15.523 0 10 0 0 4.477 0 10s4.477 10 10 10zm0-2a8 8 0 1 0 0-16 8 8 0 0 0 0 16z" fill-rule="evenodd"/></symbol><symbol viewBox="0 0 20 20" id="zondicon-add-solid"><path d="M11 9V5H9v4H5v2h4v4h2v-4h4V9h-4zm-1 11c5.523 0 10-4.477 10-10S15.523 0 10 0 0 4.477 0 10s4.477 10 10 10z" fill-rule="evenodd"/></symbol><symbol viewBox="0 0 20 20" id="zondicon-adjust"><path d="M10 2a8 8 0 1 1 0 16V2zm0 18c5.523 0 10-4.477 10-10S15.523 0 10 0 0 4.477 0 10s4.477 10 10 10z" fill-rule="evenodd"/></symbol><symbol viewBox="0 0 20 20" id="zondicon-airplane"><path d="M8.4 12H2.8L1 15H0V5h1l1.8 3h5.6L6 0h2l4.8 8h5.205C19.107 8 20 8.888 20 10c0 1.105-.893 2-1.995 2H12.8L8 20H6l2.4-8z" fill-rule="evenodd"/></symbol><symbol viewBox="0 0 20 20" id="zondicon-album"><path d="M0 0h20v20H0V0zm10 18a8 8 0 1 0 0-16 8 8 0 0 0 0 16zm0-5a3 3 0 1 0 0-6 3 3 0 0 0 0 6z" fill-rule="evenodd"/></symbol><symbol viewBox="0 0 20 20" id="zondicon-align-center"><path d="M1 1h18v2H1V1zm0 8h18v2H1V9zm0 8h18v2H1v-2zM4 5h12v2H4V5zm0 8h12v2H4v-2z" fill-rule="evenodd"/></symbol><symbol viewBox="0 0 20 20" id="zondicon-align-justified"><path d="M1 1h18v2H1V1zm0 8h18v2H1V9zm0 8h18v2H1v-2zM1 5h18v2H1V5zm0 8h18v2H1v-2z" fill-rule="evenodd"/></symbol><symbol viewBox="0 0 20 20" id="zondicon-align-left"><path d="M1 1h18v2H1V1zm0 8h18v2H1V9zm0 8h18v2H1v-2zM1 5h12v2H1V5zm0 8h12v2H1v-2z" fill-rule="evenodd"/></symbol><symbol viewBox="0 0 20 20" id="zondicon-align-right"><path d="M1 1h18v2H1V1zm0 8h18v2H1V9zm0 8h18v2H1v-2zM7 5h12v2H7V5zm0 8h12v2H7v-2z" fill-rule="evenodd"/></symbol><symbol viewBox="0 0 20 20" id="zondicon-announcement"><path d="M3 6v-.002C3 4.895 3.897 4 5.006 4H13l4-4h2v16h-2l-4-4H5.006A1.997 1.997 0 0 1 3 10.002V10H1V6h2zm8 9h2v-2H5v2h1.333L8 20h3v-5z" fill-rule="evenodd"/></symbol><symbol viewBox="0 0 20 20" id="zondicon-apparel"><path d="M7 0H6L0 3v6l4-1v12h12V8l4 1V3l-6-3h-1a3 3 0 0 1-6 0z" fill-rule="evenodd"/></symbol><symbol viewBox="0 0 20 20" id="zondicon-arrow-outline-down"><path d="M10 20c5.523 0 10-4.477 10-10S15.523 0 10 0 0 4.477 0 10s4.477 10 10 10zm0-2a8 8 0 1 0 0-16 8 8 0 0 0 0 16zm-2-8h4V5H8v5zm2 5l5-5H5l5 5z" fill-rule="evenodd"/></symbol><symbol viewBox="0 0 20 20" id="zondicon-arrow-outline-left"><path d="M0 10c0 5.523 4.477 10 10 10s10-4.477 10-10S15.523 0 10 0 0 4.477 0 10zm2 0a8 8 0 1 0 16 0 8 8 0 0 0-16 0zm8-2v4h5V8h-5zm-5 2l5 5V5l-5 5z" fill-rule="evenodd"/></symbol><symbol viewBox="0 0 20 20" id="zondicon-arrow-outline-right"><path d="M20 10c0-5.523-4.477-10-10-10S0 4.477 0 10s4.477 10 10 10 10-4.477 10-10zm-2 0a8 8 0 1 0-16 0 8 8 0 0 0 16 0zm-8 2V8H5v4h5zm5-2l-5-5v10l5-5z" fill-rule="evenodd"/></symbol><symbol viewBox="0 0 20 20" id="zondicon-arrow-outline-up"><path d="M10 0C4.477 0 0 4.477 0 10s4.477 10 10 10 10-4.477 10-10S15.523 0 10 0zm0 2a8 8 0 1 0 0 16 8 8 0 0 0 0-16zm2 8H8v5h4v-5zm-2-5l-5 5h10l-5-5z" fill-rule="evenodd"/></symbol><symbol viewBox="0 0 20 20" id="zondicon-arrow-thick-down"><path d="M13 10V2H7v8H2l8 8 8-8h-5z" fill-rule="evenodd"/></symbol><symbol viewBox="0 0 20 20" id="zondicon-arrow-thick-left"><path d="M10 13h8V7h-8V2l-8 8 8 8v-5z" fill-rule="evenodd"/></symbol><symbol viewBox="0 0 20 20" id="zondicon-arrow-thick-right"><path d="M10 7H2v6h8v5l8-8-8-8v5z" fill-rule="evenodd"/></symbol><symbol viewBox="0 0 20 20" id="zondicon-arrow-thick-up"><path d="M7 10v8h6v-8h5l-8-8-8 8h5z" fill-rule="evenodd"/></symbol><symbol viewBox="0 0 20 20" id="zondicon-arrow-thin-down"><path d="M9 16.172L2.929 10.1l-1.414 1.414L10 20l.707-.707 7.778-7.778-1.414-1.414L11 16.17V0H9z" fill-rule="evenodd"/></symbol><symbol viewBox="0 0 20 20" id="zondicon-arrow-thin-left"><path d="M3.828 9L9.9 2.929 8.485 1.515 0 10l.707.707 7.778 7.778L9.9 17.071 3.83 11H20V9H3.828z" fill-rule="evenodd"/></symbol><symbol viewBox="0 0 20 20" id="zondicon-arrow-thin-right"><path d="M16.172 9L10.1 2.929l1.414-1.414L20 10l-.707.707-7.778 7.778-1.414-1.414L16.17 11H0V9z" fill-rule="evenodd"/></symbol><symbol viewBox="0 0 20 20" id="zondicon-arrow-thin-up"><path d="M9 3.828L2.929 9.9 1.515 8.485 10 0l.707.707 7.778 7.778L17.071 9.9 11 3.83V20H9V3.828z" fill-rule="evenodd"/></symbol><symbol viewBox="0 0 20 20" id="zondicon-artist"><path d="M12.008 4.25a4 4 0 1 1 3.742 3.742L12.008 4.25zM1.858 15.314L11.05 6.12l2.83 2.83-9.193 9.192-2.828-2.828zM.444 18.142l2.121-2.121 1.414 1.414-2.121 2.121-1.414-1.414zM10 15l2-2v7h-2v-5z" fill-rule="evenodd"/></symbol><symbol viewBox="0 0 20 20" id="zondicon-at-symbol"><path d="M13.604 13.466A3.5 3.5 0 0 0 20 11.5V10h-.168H20c0-5.523-4.477-10-10-10S0 4.477 0 10s4.477 10 10 10c1.608 0 3.127-.38 4.473-1.054l-.895-1.789A8 8 0 1 1 18 10v1.5c0 .828-.666 1.5-1.5 1.5-.828 0-1.5-.674-1.5-1.5V5h-2v1a5 5 0 1 0 .604 7.466zM10 13a3 3 0 1 0 0-6 3 3 0 0 0 0 6z" fill-rule="evenodd"/></symbol><symbol viewBox="0 0 20 20" id="zondicon-attachment"><path d="M15 3H7a7 7 0 1 0 0 14h8v-2H7A5 5 0 0 1 7 5h8a3 3 0 0 1 0 6H7a1 1 0 0 1 0-2h8V7H7a3 3 0 1 0 0 6h8a5 5 0 0 0 0-10z" fill-rule="evenodd"/></symbol><symbol viewBox="0 0 20 20" id="zondicon-backspace"><path d="M14.414 10l2.122-2.121-1.415-1.415L13 8.586l-2.121-2.122L9.464 7.88 11.586 10l-2.122 2.121 1.415 1.415L13 11.414l2.121 2.122 1.415-1.415L14.414 10zM0 10l7-7h13v14H7l-7-7z" fill-rule="evenodd"/></symbol><symbol viewBox="0 0 20 20" id="zondicon-backward"><path d="M19 5l-9 5 9 5V5zm-9 0l-9 5 9 5V5z" fill-rule="evenodd"/></symbol><symbol viewBox="0 0 20 20" id="zondicon-backward-step"><path d="M4 5h3v10H4V5zm12 0l-9 5 9 5V5z" fill-rule="evenodd"/></symbol><symbol viewBox="0 0 20 20" id="zondicon-badge"><path d="M10 12a6 6 0 1 0 0-12 6 6 0 0 0 0 12zm0-3a3 3 0 1 0 0-6 3 3 0 0 0 0 6zm4 2.745V20l-4-4-4 4v-8.255A6.968 6.968 0 0 0 10 13a6.968 6.968 0 0 0 4-1.255z" fill-rule="evenodd"/></symbol><symbol viewBox="0 0 20 20" id="zondicon-battery-full"><path d="M0 6.009C0 4.899.898 4 1.99 4h16.02C19.108 4 20 4.902 20 6.009v7.982c0 1.11-.898 2.009-1.99 2.009H1.99A2.002 2.002 0 0 1 0 13.991V6.01zM2 6h16v8H2V6zm1 1h4v6H3V7zm5 0h4v6H8V7zm5 0h4v6h-4V7z" fill-rule="evenodd"/></symbol><symbol viewBox="0 0 20 20" id="zondicon-battery-half"><path d="M0 6.009C0 4.899.898 4 1.99 4h16.02C19.108 4 20 4.902 20 6.009v7.982c0 1.11-.898 2.009-1.99 2.009H1.99A2.002 2.002 0 0 1 0 13.991V6.01zM2 6h16v8H2V6zm1 1h4v6H3V7zm5 0h4v6H8V7z" fill-rule="evenodd"/></symbol><symbol viewBox="0 0 20 20" id="zondicon-battery-low"><path d="M0 6.009C0 4.899.898 4 1.99 4h16.02C19.108 4 20 4.902 20 6.009v7.982c0 1.11-.898 2.009-1.99 2.009H1.99A2.002 2.002 0 0 1 0 13.991V6.01zM2 6h16v8H2V6zm1 1h4v6H3V7z" fill-rule="evenodd"/></symbol><symbol viewBox="0 0 20 20" id="zondicon-beverage"><path d="M9 18v-7L0 2V0h20v2l-9 9v7l5 1v1H4v-1l5-1zm2-10a2 2 0 1 0 0-4 2 2 0 0 0 0 4z" fill-rule="evenodd"/></symbol><symbol viewBox="0 0 20 20" id="zondicon-block"><path d="M16.32 5.094A8 8 0 0 1 5.094 16.32L16.32 5.094zM14.906 3.68A8 8 0 0 0 3.68 14.906L14.906 3.68zM0 10c0 5.523 4.477 10 10 10s10-4.477 10-10S15.523 0 10 0 0 4.477 0 10z" fill-rule="evenodd"/></symbol><symbol viewBox="0 0 20 20" id="zondicon-bluetooth"><path d="M9.414 0l4.94 4.94L15.414 6l-1.06 1.06-2.94 2.94 2.94 2.94 1.06 1.06-1.06 1.06L9.414 20H9v-7.586l-3.293 3.293-1.414-1.414L8.586 10 4.293 5.707l1.414-1.414L9 7.586V0h.414zM11 4.414v3.172L12.586 6 11 4.414zM12.586 14L11 15.586v-3.172L12.586 14z" fill-rule="evenodd"/></symbol><symbol viewBox="0 0 20 20" id="zondicon-bolt"><path d="M13 8V0L3 12h4v8L17 8h-4z" fill-rule="evenodd"/></symbol><symbol viewBox="0 0 20 20" id="zondicon-book-reference"><path d="M2 1.99C2 .892 2.897 0 4.006 0h10.987A1 1 0 0 1 16 1v1H5.002a.999.999 0 1 0 .005 2h11.986C17.55 4 18 4.445 18 5v13.006A1.995 1.995 0 0 1 16.006 20H3.994A1.997 1.997 0 0 1 2 18.01V1.99zM6 4h4v8l-2-2-2 2V4z" fill-rule="evenodd"/></symbol><symbol viewBox="0 0 20 20" id="zondicon-bookmark"><path d="M2 1.99C2 .892 2.895 0 3.994 0h12.012C17.107 0 18 .898 18 1.99V20l-8-4-8 4V1.99z" fill-rule="evenodd"/></symbol><symbol viewBox="0 0 20 20" id="zondicon-bookmark-outline"><path d="M2 1.99C2 .892 2.895 0 3.994 0h12.012C17.107 0 18 .898 18 1.99V20l-8-4-8 4V1.99zM4 2h12v15l-6-3-6 3V2z" fill-rule="evenodd"/></symbol><symbol viewBox="0 0 20 20" id="zondicon-bookmark-outline-add"><path d="M9 7H7v2h2v2h2V9h2V7h-2V5H9v2zM2 1.99C2 .892 2.895 0 3.994 0h12.012C17.107 0 18 .898 18 1.99V20l-8-4-8 4V1.99zM4 2h12v15l-6-3-6 3V2z" fill-rule="evenodd"/></symbol><symbol viewBox="0 0 20 20" id="zondicon-border-all"><path d="M11 11v6h6v-6h-6zm0-2V3h6v6h-6zm-2 2v6H3v-6h6zm0-2V3H3v6h6zm-8 9V1h18v18H1v-1z" fill-rule="evenodd"/></symbol><symbol viewBox="0 0 20 20" id="zondicon-border-bottom"><path d="M1 1h2v2H1V1zm0 4h2v2H1V5zm0 4h2v2H1V9zm0 4h2v2H1v-2zm0 4h18v2H1v-2zM5 1h2v2H5V1zm0 8h2v2H5V9zm4-8h2v2H9V1zm0 4h2v2H9V5zm0 4h2v2H9V9zm0 4h2v2H9v-2zm4-12h2v2h-2V1zm0 8h2v2h-2V9zm4-8h2v2h-2V1zm0 4h2v2h-2V5zm0 4h2v2h-2V9zm0 4h2v2h-2v-2z" fill-rule="evenodd"/></symbol><symbol viewBox="0 0 20 20" id="zondicon-border-horizontal"><path d="M1 1h2v2H1V1zm0 4h2v2H1V5zm0 4h18v2H1V9zm0 4h2v2H1v-2zm0 4h2v2H1v-2zM5 1h2v2H5V1zm0 16h2v2H5v-2zM9 1h2v2H9V1zm0 4h2v2H9V5zm0 8h2v2H9v-2zm0 4h2v2H9v-2zm4-16h2v2h-2V1zm0 16h2v2h-2v-2zm4-16h2v2h-2V1zm0 4h2v2h-2V5zm0 8h2v2h-2v-2zm0 4h2v2h-2v-2z" fill-rule="evenodd"/></symbol><symbol viewBox="0 0 20 20" id="zondicon-border-inner"><path d="M9 9H1v2h8v8h2v-8h8V9h-8V1H9v8zM1 1h2v2H1V1zm0 4h2v2H1V5zm0 8h2v2H1v-2zm0 4h2v2H1v-2zM5 1h2v2H5V1zm0 16h2v2H5v-2zm8-16h2v2h-2V1zm0 16h2v2h-2v-2zm4-16h2v2h-2V1zm0 4h2v2h-2V5zm0 8h2v2h-2v-2zm0 4h2v2h-2v-2z" fill-rule="evenodd"/></symbol><symbol viewBox="0 0 20 20" id="zondicon-border-left"><path d="M1 1h2v18H1V1zm4 0h2v2H5V1zm0 8h2v2H5V9zm0 8h2v2H5v-2zM9 1h2v2H9V1zm0 4h2v2H9V5zm0 4h2v2H9V9zm0 4h2v2H9v-2zm0 4h2v2H9v-2zm4-16h2v2h-2V1zm0 8h2v2h-2V9zm0 8h2v2h-2v-2zm4-16h2v2h-2V1zm0 4h2v2h-2V5zm0 4h2v2h-2V9zm0 4h2v2h-2v-2zm0 4h2v2h-2v-2z" fill-rule="evenodd"/></symbol><symbol viewBox="0 0 20 20" id="zondicon-border-none"><path d="M1 1h2v2H1V1zm0 4h2v2H1V5zm0 4h2v2H1V9zm0 4h2v2H1v-2zm0 4h2v2H1v-2zM5 1h2v2H5V1zm0 8h2v2H5V9zm0 8h2v2H5v-2zM9 1h2v2H9V1zm0 4h2v2H9V5zm0 4h2v2H9V9zm0 4h2v2H9v-2zm0 4h2v2H9v-2zm4-16h2v2h-2V1zm0 8h2v2h-2V9zm0 8h2v2h-2v-2zm4-16h2v2h-2V1zm0 4h2v2h-2V5zm0 4h2v2h-2V9zm0 4h2v2h-2v-2zm0 4h2v2h-2v-2z" fill-rule="evenodd"/></symbol><symbol viewBox="0 0 20 20" id="zondicon-border-outer"><path d="M2 19H1V1h18v18H2zm1-2V3h14v14H3zm10-8h2v2h-2V9zM9 9h2v2H9V9zM5 9h2v2H5V9zm4-4h2v2H9V5zm0 8h2v2H9v-2z" fill-rule="evenodd"/></symbol><symbol viewBox="0 0 20 20" id="zondicon-border-right"><path d="M5 1h2v2H5V1zm0 8h2v2H5V9zm0 8h2v2H5v-2zM9 1h2v2H9V1zm0 4h2v2H9V5zm0 4h2v2H9V9zm0 4h2v2H9v-2zm0 4h2v2H9v-2zm4-16h2v2h-2V1zm0 8h2v2h-2V9zm0 8h2v2h-2v-2zM1 1h2v2H1V1zm0 4h2v2H1V5zm0 4h2v2H1V9zm0 4h2v2H1v-2zm0 4h2v2H1v-2zM17 1h2v18h-2V1z" fill-rule="evenodd"/></symbol><symbol viewBox="0 0 20 20" id="zondicon-border-top"><path d="M1 1h18v2H1V1zm0 4h2v2H1V5zm0 4h2v2H1V9zm0 4h2v2H1v-2zm0 4h2v2H1v-2zm4-8h2v2H5V9zm0 8h2v2H5v-2zM9 5h2v2H9V5zm0 4h2v2H9V9zm0 4h2v2H9v-2zm0 4h2v2H9v-2zm4-8h2v2h-2V9zm0 8h2v2h-2v-2zm4-12h2v2h-2V5zm0 4h2v2h-2V9zm0 4h2v2h-2v-2zm0 4h2v2h-2v-2z" fill-rule="evenodd"/></symbol><symbol viewBox="0 0 20 20" id="zondicon-border-vertical"><path d="M1 1h2v2H1V1zm0 4h2v2H1V5zm0 4h2v2H1V9zm0 4h2v2H1v-2zm0 4h2v2H1v-2zM5 1h2v2H5V1zm0 8h2v2H5V9zm0 8h2v2H5v-2zM9 1h2v18H9V1zm4 0h2v2h-2V1zm0 8h2v2h-2V9zm0 8h2v2h-2v-2zm4-16h2v2h-2V1zm0 4h2v2h-2V5zm0 4h2v2h-2V9zm0 4h2v2h-2v-2zm0 4h2v2h-2v-2z" fill-rule="evenodd"/></symbol><symbol viewBox="0 0 20 20" id="zondicon-box"><path d="M0 2a2 2 0 0 1 1.99-2h16.02A1.99 1.99 0 0 1 20 2v2H0V2zm1 3h18v13.008c0 1.1-.893 1.992-1.995 1.992H2.995A1.995 1.995 0 0 1 1 18.008V5zm6 2h6v2H7V7z" fill-rule="evenodd"/></symbol><symbol viewBox="0 0 20 20" id="zondicon-brightness-down"><path d="M10 13a3 3 0 1 0 0-6 3 3 0 0 0 0 6zM9 4c0-.552.444-1 1-1 .552 0 1 .444 1 1 0 .552-.444 1-1 1-.552 0-1-.444-1-1zm4.536 1.05a.998.998 0 0 1 1.414 0 .998.998 0 0 1 0 1.414.998.998 0 0 1-1.414 0 .998.998 0 0 1 0-1.414zM16 9c.552 0 1 .444 1 1 0 .552-.444 1-1 1-.552 0-1-.444-1-1 0-.552.444-1 1-1zm-1.05 4.536a.998.998 0 0 1 0 1.414.998.998 0 0 1-1.414 0 .998.998 0 0 1 0-1.414.998.998 0 0 1 1.414 0zM11 16c0 .552-.444 1-1 1-.552 0-1-.444-1-1 0-.552.444-1 1-1 .552 0 1 .444 1 1zm-4.536-1.05a.998.998 0 0 1-1.414 0 .998.998 0 0 1 0-1.414.998.998 0 0 1 1.414 0 .998.998 0 0 1 0 1.414zM4 11c-.552 0-1-.444-1-1 0-.552.444-1 1-1 .552 0 1 .444 1 1 0 .552-.444 1-1 1zm1.05-4.536a.998.998 0 0 1 0-1.414.998.998 0 0 1 1.414 0 .998.998 0 0 1 0 1.414.998.998 0 0 1-1.414 0z" fill-rule="evenodd"/></symbol><symbol viewBox="0 0 20 20" id="zondicon-brightness-up"><path d="M10 14a4 4 0 1 0 0-8 4 4 0 0 0 0 8zM9 1.01a1 1 0 1 1 2 0v1.98a1 1 0 1 1-2 0V1.01zm6.65 1.926a1 1 0 1 1 1.414 1.414l-1.4 1.4a1 1 0 1 1-1.414-1.414l1.4-1.4zM18.99 9a1 1 0 1 1 0 2h-1.98a1 1 0 1 1 0-2h1.98zm-1.926 6.65a1 1 0 1 1-1.414 1.414l-1.4-1.4a1 1 0 1 1 1.414-1.414l1.4 1.4zM11 18.99a1 1 0 1 1-2 0v-1.98a1 1 0 1 1 2 0v1.98zm-6.65-1.926a1 1 0 1 1-1.414-1.414l1.4-1.4a1 1 0 1 1 1.414 1.414l-1.4 1.4zM1.01 11a1 1 0 1 1 0-2h1.98a1 1 0 1 1 0 2H1.01zm1.926-6.65A1 1 0 1 1 4.35 2.936l1.4 1.4A1 1 0 1 1 4.337 5.75l-1.4-1.4z" fill-rule="evenodd"/></symbol><symbol viewBox="0 0 20 20" id="zondicon-bug"><path d="M15.305 14.89c.308-.58.523-1.216.626-1.89h3.066A.994.994 0 0 0 20 12a1 1 0 0 0-1.003-1H16V8.414l3.072-3.072a1.003 1.003 0 0 0 0-1.413.997.997 0 0 0-1.414-.001l-2.097 2.097H4.439L2.342 3.928a1.003 1.003 0 0 0-1.413 0 .997.997 0 0 0-.001 1.414L4 8.414V11H1.003A.994.994 0 0 0 0 12a1 1 0 0 0 1.003 1h3.066c.103.673.319 1.31.627 1.89l-2.768 2.768a1.003 1.003 0 0 0 0 1.413.997.997 0 0 0 1.414.001l2.585-2.584A5.985 5.985 0 0 0 9 18V9.04a1 1 0 0 1 1-1.007c.552 0 1 .458 1 1.007V18a5.989 5.989 0 0 0 3.074-1.512l2.584 2.584c.386.386 1.023.39 1.413 0a.997.997 0 0 0 .001-1.414l-2.767-2.768zM15 5A5 5 0 0 0 5 5h10z" fill-rule="evenodd"/></symbol><symbol viewBox="0 0 20 20" id="zondicon-buoy"><path d="M2.843 13.578a8.034 8.034 0 0 0 3.579 3.579l1.341-2.684a5.021 5.021 0 0 1-2.236-2.236l-2.684 1.341zm0-7.156a8.034 8.034 0 0 1 3.579-3.579l1.341 2.684a5.021 5.021 0 0 0-2.236 2.236L2.843 6.422zm10.735 10.735a8.034 8.034 0 0 0 3.579-3.579l-2.684-1.341a5.021 5.021 0 0 1-2.236 2.236l1.341 2.684zm3.579-10.735a8.034 8.034 0 0 0-3.579-3.579l-1.341 2.684a5.021 5.021 0 0 1 2.236 2.236l2.684-1.341zm-5.99-1.285zM10 20c5.523 0 10-4.477 10-10S15.523 0 10 0 0 4.477 0 10s4.477 10 10 10zm0-7a3 3 0 1 0 0-6 3 3 0 0 0 0 6z" fill-rule="evenodd"/></symbol><symbol viewBox="0 0 20 20" id="zondicon-calculator"><path d="M2 1.99C2 .892 2.895 0 3.994 0h12.012C17.107 0 18 .898 18 1.99v16.02c0 1.099-.895 1.99-1.994 1.99H3.994A1.997 1.997 0 0 1 2 18.01V1.99zM5 3h10v2H5V3zm0 4h2v2H5V7zm4 0h2v2H9V7zm4 0h2v2h-2V7zm-8 4h2v2H5v-2zm4 0h2v2H9v-2zm4 0h2v6h-2v-6zm-8 4h2v2H5v-2zm4 0h2v2H9v-2z" fill-rule="evenodd"/></symbol><symbol viewBox="0 0 20 20" id="zondicon-calendar"><path d="M1 3.995C1 2.893 1.893 2 2.995 2h14.01C18.107 2 19 2.893 19 3.995v14.01A1.995 1.995 0 0 1 17.005 20H2.995A1.995 1.995 0 0 1 1 18.005V3.995zM3 6h14v12H3V6zm2-6h2v2H5V0zm8 0h2v2h-2V0zM5 9h2v2H5V9zm0 4h2v2H5v-2zm4-4h2v2H9V9zm0 4h2v2H9v-2zm4-4h2v2h-2V9zm0 4h2v2h-2v-2z" fill-rule="evenodd"/></symbol><symbol viewBox="0 0 20 20" id="zondicon-camera"><path d="M0 6.006C0 4.898.894 4 2.005 4H5l2-2h6l2 2h2.995C19.102 4 20 4.897 20 6.006v9.988A2.003 2.003 0 0 1 18.01 18H1.99A1.998 1.998 0 0 1 0 15.994V6.006zM10 16a5 5 0 1 0 0-10 5 5 0 0 0 0 10zm0-2a3 3 0 1 0 0-6 3 3 0 0 0 0 6z" fill-rule="evenodd"/></symbol><symbol viewBox="0 0 20 20" id="zondicon-chart"><path d="M5.793 13.113a2 2 0 1 1-1.664-1.109l2.078-3.117a2 2 0 1 1 3.725-.369l1.55 1.55a2.003 2.003 0 0 1 .647-.064l2.078-3.117a2 2 0 1 1 1.664 1.109l-2.078 3.117a2 2 0 1 1-3.725.369l-1.55-1.55a2.003 2.003 0 0 1-.647.064l-2.078 3.117zM0 3.994C0 2.893.898 2 1.99 2h16.02C19.108 2 20 2.895 20 3.994v12.012A1.997 1.997 0 0 1 18.01 18H1.99A1.994 1.994 0 0 1 0 16.006V3.994z" fill-rule="evenodd"/></symbol><symbol viewBox="0 0 20 20" id="zondicon-chart-bar"><path d="M1 10h3v10H1V10zM6 0h3v20H6V0zm5 8h3v12h-3V8zm5-4h3v16h-3V4z" fill-rule="evenodd"/></symbol><symbol viewBox="0 0 20 20" id="zondicon-chart-pie"><path d="M19.95 11c-.501 5.053-4.765 9-9.95 9-5.523 0-10-4.477-10-10C0 4.815 3.947.551 9 .05V11h10.95zm-.077-2.6A10.008 10.008 0 0 0 11.6.127V8.4h8.273z" fill-rule="evenodd"/></symbol><symbol viewBox="0 0 20 20" id="zondicon-chat-bubble-dots"><path d="M10 15h8.01c1.092 0 1.99-.898 1.99-2.006V3.006A1.998 1.998 0 0 0 18.01 1H1.99C.899 1 0 1.898 0 3.006v9.988C0 14.103.891 15 1.99 15H6v4l4-4zM5 7h2v2H5V7zm4 0h2v2H9V7zm4 0h2v2h-2V7z" fill-rule="evenodd"/></symbol><symbol viewBox="0 0 20 20" id="zondicon-checkmark"><path d="M0 11l2-2 5 5L18 3l2 2L7 18z" fill-rule="evenodd"/></symbol><symbol viewBox="0 0 20 20" id="zondicon-checkmark-outline"><path d="M2.929 17.071c3.905 3.905 10.237 3.905 14.142 0 3.905-3.905 3.905-10.237 0-14.142-3.905-3.905-10.237-3.905-14.142 0-3.905 3.905-3.905 10.237 0 14.142zm12.728-1.414A8 8 0 1 0 4.343 4.343a8 8 0 0 0 11.314 11.314zM4 10l2-2 3 3 5-5 2 2-7 7-5-5z" fill-rule="evenodd"/></symbol><symbol viewBox="0 0 20 20" id="zondicon-cheveron-down"><path d="M9.293 12.95l.707.707L15.657 8l-1.414-1.414L10 10.828 5.757 6.586 4.343 8z" fill-rule="evenodd"/></symbol><symbol viewBox="0 0 20 20" id="zondicon-cheveron-left"><path d="M7.05 9.293L6.343 10 12 15.657l1.414-1.414L9.172 10l4.242-4.243L12 4.343z" fill-rule="evenodd"/></symbol><symbol viewBox="0 0 20 20" id="zondicon-cheveron-outline-down"><path d="M9.293 12.536L5.757 9l1.415-1.414L10 10.414l2.828-2.828L14.243 9 10 13.243l-.707-.707zM20 10c0-5.523-4.477-10-10-10S0 4.477 0 10s4.477 10 10 10 10-4.477 10-10zM10 2a8 8 0 1 0 0 16 8 8 0 0 0 0-16z" fill-rule="evenodd"/></symbol><symbol viewBox="0 0 20 20" id="zondicon-cheveron-outline-left"><path d="M7.464 9.293L11 5.757l1.414 1.415L9.586 10l2.828 2.828L11 14.243 6.757 10l.707-.707zM10 20c5.523 0 10-4.477 10-10S15.523 0 10 0 0 4.477 0 10s4.477 10 10 10zm8-10a8 8 0 1 0-16 0 8 8 0 0 0 16 0z" fill-rule="evenodd"/></symbol><symbol viewBox="0 0 20 20" id="zondicon-cheveron-outline-right"><path d="M12.536 10.707L9 14.243l-1.414-1.415L10.414 10 7.586 7.172 9 5.757 13.243 10l-.707.707zM10 0C4.477 0 0 4.477 0 10s4.477 10 10 10 10-4.477 10-10S15.523 0 10 0zM2 10a8 8 0 1 0 16 0 8 8 0 0 0-16 0z" fill-rule="evenodd"/></symbol><symbol viewBox="0 0 20 20" id="zondicon-cheveron-outline-up"><path d="M10.707 7.464L14.243 11l-1.415 1.414L10 9.586l-2.828 2.828L5.757 11 10 6.757l.707.707zM0 10c0 5.523 4.477 10 10 10s10-4.477 10-10S15.523 0 10 0 0 4.477 0 10zm10 8a8 8 0 1 0 0-16 8 8 0 0 0 0 16z" fill-rule="evenodd"/></symbol><symbol viewBox="0 0 20 20" id="zondicon-cheveron-right"><path d="M12.95 10.707l.707-.707L8 4.343 6.586 5.757 10.828 10l-4.242 4.243L8 15.657l4.95-4.95z" fill-rule="evenodd"/></symbol><symbol viewBox="0 0 20 20" id="zondicon-cheveron-up"><path d="M10.707 7.05L10 6.343 4.343 12l1.414 1.414L10 9.172l4.243 4.242L15.657 12z" fill-rule="evenodd"/></symbol><symbol viewBox="0 0 20 20" id="zondicon-clipboard"><path d="M12.973 2.595a3 3 0 0 0-5.946 0L5 3v1H3.994C2.894 4 2 4.893 2 5.994v12.012C2 19.106 2.893 20 3.994 20h12.012c1.1 0 1.994-.893 1.994-1.994V5.994C18 4.894 17.107 4 16.006 4H15V3l-2.027-.405zM5 6H4v12h12V6h-1v1H5V6zm5-2a1 1 0 1 0 0-2 1 1 0 0 0 0 2z" fill-rule="evenodd"/></symbol><symbol viewBox="0 0 20 20" id="zondicon-close"><path d="M10 8.586L2.929 1.515 1.515 2.929 8.585 10l-7.07 7.071 1.414 1.414L10 11.415l7.071 7.07 1.414-1.414L11.415 10l7.07-7.071-1.414-1.414L10 8.585z" fill-rule="evenodd"/></symbol><symbol viewBox="0 0 20 20" id="zondicon-close-outline"><path d="M11.414 10l2.829-2.828-1.415-1.415L10 8.586 7.172 5.757 5.757 7.172 8.586 10l-2.829 2.828 1.415 1.415L10 11.414l2.828 2.829 1.415-1.415L11.414 10zM2.93 17.071c3.905 3.905 10.237 3.905 14.142 0 3.905-3.905 3.905-10.237 0-14.142-3.905-3.905-10.237-3.905-14.142 0-3.905 3.905-3.905 10.237 0 14.142zm1.414-1.414A8 8 0 1 0 15.657 4.343 8 8 0 0 0 4.343 15.657z" fill-rule="evenodd"/></symbol><symbol viewBox="0 0 20 20" id="zondicon-close-solid"><path d="M11.414 10l2.829-2.828-1.415-1.415L10 8.586 7.172 5.757 5.757 7.172 8.586 10l-2.829 2.828 1.415 1.415L10 11.414l2.828 2.829 1.415-1.415L11.414 10zM2.93 17.071c3.905 3.905 10.237 3.905 14.142 0 3.905-3.905 3.905-10.237 0-14.142-3.905-3.905-10.237-3.905-14.142 0-3.905 3.905-3.905 10.237 0 14.142z" fill-rule="evenodd"/></symbol><symbol viewBox="0 0 20 20" id="zondicon-cloud"><path d="M16.88 9.097A4.002 4.002 0 0 1 16 17H5a5 5 0 0 1-.998-9.9 3 3 0 0 1 4.516-2.688 5 5 0 0 1 8.361 4.685z" fill-rule="evenodd"/></symbol><symbol viewBox="0 0 20 20" id="zondicon-cloud-upload"><path d="M16.88 9.097A4.002 4.002 0 0 1 16 17H5a5 5 0 0 1-.998-9.9 3 3 0 0 1 4.516-2.688 5 5 0 0 1 8.361 4.685zM10 7l4 4H6l4-4zm-1 4h2v3H9v-3z" fill-rule="evenodd"/></symbol><symbol viewBox="0 0 20 20" id="zondicon-code"><path d="M.707 10.707L0 10l5.485-5.485L6.9 5.929 2.83 10l4.07 4.071-1.414 1.414-4.778-4.778zm18.586 0L20 10l-5.485-5.485L13.1 5.929 17.17 10l-4.07 4.071 1.414 1.414 4.778-4.778z" fill-rule="evenodd"/></symbol><symbol viewBox="0 0 20 20" id="zondicon-coffee"><path d="M4 11v.007A3.993 3.993 0 0 0 7.993 15h6.014A3.993 3.993 0 0 0 18 11.007V1H4v2H2.005A2 2 0 0 0 0 4.998v4.004C0 10.113.898 11 2.005 11H4zm0-2V5H2v4h2zm-2 8v-1h18v1l-4 2H6l-4-2z" fill-rule="evenodd"/></symbol><symbol viewBox="0 0 20 20" id="zondicon-cog"><path d="M3.938 6.497a6.958 6.958 0 0 0-.702 1.694L0 9v2l3.236.809c.16.6.398 1.169.702 1.694l-1.716 2.861 1.414 1.414 2.86-1.716a6.958 6.958 0 0 0 1.695.702L9 20h2l.809-3.236a6.96 6.96 0 0 0 1.694-.702l2.861 1.716 1.414-1.414-1.716-2.86a6.958 6.958 0 0 0 .702-1.695L20 11V9l-3.236-.809a6.958 6.958 0 0 0-.702-1.694l1.716-2.861-1.414-1.414-2.86 1.716a6.958 6.958 0 0 0-1.695-.702L11 0H9l-.809 3.236a6.96 6.96 0 0 0-1.694.702L3.636 2.222 2.222 3.636l1.716 2.86zM10 13a3 3 0 1 0 0-6 3 3 0 0 0 0 6z" fill-rule="evenodd"/></symbol><symbol viewBox="0 0 20 20" id="zondicon-color-palette"><path d="M9 20h9.01c1.092 0 1.99-.895 1.99-1.998v-4.004A1.99 1.99 0 0 0 18.01 12h-2.94l-6.06 6.06c-.001.08-.004.158-.011.235V20zm0-3.343l7.734-7.735a1.999 1.999 0 0 0-.005-2.82L13.9 3.27a1.99 1.99 0 0 0-2.821-.005L9 5.343v11.314zM0 1.99C0 .89.887 0 1.998 0h4.004C7.105 0 8 .898 8 1.99v16.02A1.99 1.99 0 0 1 6.002 20H1.998A1.999 1.999 0 0 1 0 18.01V1.99zM4 17a1 1 0 1 0 0-2 1 1 0 0 0 0 2z" fill-rule="evenodd"/></symbol><symbol viewBox="0 0 20 20" id="zondicon-compose"><path d="M2 4v14h14v-6l2-2v10H0V2h10L8 4H2zm10.293-.293L4 12v4h4l8.293-8.293-4-4zm1.414-1.414L16 0l4 4-2.293 2.293-4-4z" fill-rule="evenodd"/></symbol><symbol viewBox="0 0 20 20" id="zondicon-computer-desktop"><path d="M3 19l4-2h6l4 2v1H3v-1zM0 2a2 2 0 0 1 1.99-2h16.02C19.108 0 20 .89 20 2v13a2 2 0 0 1-1.99 2H1.99C.892 17 0 16.11 0 15V2zm2 0h16v11H2V2z" fill-rule="evenodd"/></symbol><symbol viewBox="0 0 20 20" id="zondicon-computer-laptop"><path d="M18 16V3.994C18 2.894 17.107 2 16.006 2H3.994C2.894 2 2 2.893 2 3.994V16H0v1c0 .556.444 1 .992 1h18.016c.537 0 .992-.448.992-1v-1h-2zM4 4h12v9H4V4zm4 11h4v1H8v-1z" fill-rule="evenodd"/></symbol><symbol viewBox="0 0 20 20" id="zondicon-conversation"><path d="M14 11H8.006A1.998 1.998 0 0 1 6 9.008V1.992C6 .9 6.898 0 8.006 0h9.988C19.103 0 20 .892 20 1.992v7.016A2.004 2.004 0 0 1 17.994 11H17v3l-3-3zm0 2v2.008c0 1.1-.897 1.992-2.006 1.992H6l-3 3v-3h-.994C.898 17 0 16.1 0 15.008V7.992C0 6.892.897 6 2.006 6H4v2.993A4.001 4.001 0 0 0 7.996 13H14z" fill-rule="evenodd"/></symbol><symbol viewBox="0 0 20 20" id="zondicon-credit-card"><path d="M0 3.994C0 2.893.898 2 1.99 2h16.02C19.108 2 20 2.895 20 3.994v12.012A1.997 1.997 0 0 1 18.01 18H1.99A1.994 1.994 0 0 1 0 16.006V3.994zM2 4h16v12H2V4zm0 2h16v4H2V6zm2 6h4v2H4v-2z" fill-rule="evenodd"/></symbol><symbol viewBox="0 0 20 20" id="zondicon-currency-dollar"><path d="M10 20c5.523 0 10-4.477 10-10S15.523 0 10 0 0 4.477 0 10s4.477 10 10 10zm1-5v2H9v-2H6v-2h5.997A.994.994 0 0 0 13 12a1 1 0 0 0-1.003-1H8a3 3 0 1 1 0-6h1V3h2v2h3v2H7.991A1 1 0 0 0 7 8c0 .556.444 1 .99 1H12a3 3 0 0 1 0 6h-1z" fill-rule="evenodd"/></symbol><symbol viewBox="0 0 20 20" id="zondicon-dashboard"><path d="M11.932 9.482a2 2 0 1 1-1.414-1.414l3.018-3.018 1.414 1.414-3.018 3.018zm3.668 6.232a8 8 0 1 0-11.2 0A9.954 9.954 0 0 1 10 14c2.075 0 4.002.632 5.6 1.714zM10 20c5.523 0 10-4.477 10-10S15.523 0 10 0 0 4.477 0 10s4.477 10 10 10z" fill-rule="evenodd"/></symbol><symbol viewBox="0 0 20 20" id="zondicon-date-add"><path d="M9 11H7v2h2v2h2v-2h2v-2h-2V9H9v2zM1 3.995C1 2.893 1.893 2 2.995 2h14.01C18.107 2 19 2.893 19 3.995v14.01A1.995 1.995 0 0 1 17.005 20H2.995A1.995 1.995 0 0 1 1 18.005V3.995zM3 6h14v12H3V6zm2-6h2v2H5V0zm8 0h2v2h-2V0z" fill-rule="evenodd"/></symbol><symbol viewBox="0 0 20 20" id="zondicon-dial-pad"><path d="M5 4a2 2 0 1 0 0-4 2 2 0 0 0 0 4zm5 0a2 2 0 1 0 0-4 2 2 0 0 0 0 4zm5 0a2 2 0 1 0 0-4 2 2 0 0 0 0 4zM5 9a2 2 0 1 0 0-4 2 2 0 0 0 0 4zm5 0a2 2 0 1 0 0-4 2 2 0 0 0 0 4zm5 0a2 2 0 1 0 0-4 2 2 0 0 0 0 4zM5 14a2 2 0 1 0 0-4 2 2 0 0 0 0 4zm5 0a2 2 0 1 0 0-4 2 2 0 0 0 0 4zm0 6a2 2 0 1 0 0-4 2 2 0 0 0 0 4zm5-6a2 2 0 1 0 0-4 2 2 0 0 0 0 4z" fill-rule="evenodd"/></symbol><symbol viewBox="0 0 20 20" id="zondicon-directions"><path d="M10 0l10 10-10 10L0 10 10 0zM6 10.005C6 8.898 6.894 8 8.005 8H11V5l4 4-4 4v-3H8v3H6v-2.995z" fill-rule="evenodd"/></symbol><symbol viewBox="0 0 20 20" id="zondicon-document"><path d="M4 18V2h8v4h4v12H4zm-2 1V0h12l4 4v16H2v-1z" fill-rule="evenodd"/></symbol><symbol viewBox="0 0 20 20" id="zondicon-document-add"><path d="M9 10H7v2h2v2h2v-2h2v-2h-2V8H9v2zm-5 8V2h8v4h4v12H4zm-2 1V0h12l4 4v16H2v-1z" fill-rule="evenodd"/></symbol><symbol viewBox="0 0 20 20" id="zondicon-dots-horizontal-double"><path d="M10 9a2 2 0 1 0 0-4 2 2 0 0 0 0 4zm0 6a2 2 0 1 0 0-4 2 2 0 0 0 0 4z" fill-rule="evenodd"/></symbol><symbol viewBox="0 0 20 20" id="zondicon-dots-horizontal-triple"><path d="M10 12a2 2 0 1 0 0-4 2 2 0 0 0 0 4zm0-6a2 2 0 1 0 0-4 2 2 0 0 0 0 4zm0 12a2 2 0 1 0 0-4 2 2 0 0 0 0 4z" fill-rule="evenodd"/></symbol><symbol viewBox="0 0 20 20" id="zondicon-download"><path d="M13 8V2H7v6H2l8 8 8-8h-5zM0 18h20v2H0v-2z" fill-rule="evenodd"/></symbol><symbol viewBox="0 0 20 20" id="zondicon-duplicate"><path d="M6 6H2.006A2.005 2.005 0 0 0 0 8.006v9.988C0 19.103.898 20 2.006 20h9.988A2.005 2.005 0 0 0 14 17.994V14h1v-2h3V2H8v3H6v1h5.994C13.102 6 14 6.897 14 8.006V14h3.994A2.005 2.005 0 0 0 20 11.994V2.006A2.005 2.005 0 0 0 17.994 0H8.006A2.005 2.005 0 0 0 6 2.006V6zm0 2H2v10h10v-4h-.497H12V8H6v.497V8zm0 4H4v2h2v2h2v-2h2v-2H8v-2H6v2z" fill-rule="evenodd"/></symbol><symbol viewBox="0 0 20 20" id="zondicon-edit-copy"><path d="M0 8.006C0 6.898.897 6 2.006 6h9.988C13.102 6 14 6.897 14 8.006v9.988A2.005 2.005 0 0 1 11.994 20H2.006A2.005 2.005 0 0 1 0 17.994V8.006zM6 8H2v10h10v-4h3v-2h3V2H8v3H6v3h6v6h5.994A2.005 2.005 0 0 0 20 11.994V2.006A2.005 2.005 0 0 0 17.994 0H8.006A2.005 2.005 0 0 0 6 2.006V8z" fill-rule="evenodd"/></symbol><symbol viewBox="0 0 20 20" id="zondicon-edit-crop"><path d="M14 16v4h2v-4h4v-2H6V0H4v4H0v2h4v8.006C4 15.106 4.893 16 5.994 16H14zm0-3V6H7V4h7.006C15.107 4 16 4.895 16 5.994V13h-2z" fill-rule="evenodd"/></symbol><symbol viewBox="0 0 20 20" id="zondicon-edit-cut"><path d="M7.727 10L5.504 8.37a3.5 3.5 0 1 1 1.383-1.986L20 16h-3.1c-.553 0-1.349-.262-1.79-.586L9.773 11.5l-2.886 2.116a3.5 3.5 0 1 1-1.383-1.986L7.727 10zM3.5 7a1.5 1.5 0 1 0 0-3 1.5 1.5 0 0 0 0 3zm0 9a1.5 1.5 0 1 0 0-3 1.5 1.5 0 0 0 0 3zM15.104 4.59C15.55 4.264 16.347 4 16.9 4H20l-7.5 5.5L10.455 8l4.65-3.41z" fill-rule="evenodd"/></symbol><symbol viewBox="0 0 20 20" id="zondicon-edit-pencil"><path d="M12.293 3.707L0 16v4h4L16.293 7.707l-4-4zm1.414-1.414L16 0l4 4-2.293 2.293-4-4z" fill-rule="evenodd"/></symbol><symbol viewBox="0 0 20 20" id="zondicon-education"><path d="M3.333 8L10 12l10-6-10-6L0 6h10v2H3.333zM0 8v8l2-2.222V9.2L0 8zm10 12l-5-3-2-1.2v-6l7 4.2 7-4.2v6L10 20z" fill-rule="evenodd"/></symbol><symbol viewBox="0 0 20 20" id="zondicon-envelope"><path d="M14.878 10.098L20 14v2l-6.373-4.902L10 14l-3.627-2.902L0 16v-2l5.122-3.902L0 6V4l10 8 10-8v2l-5.122 4.098zM18.009 2C19.11 2 20 2.895 20 3.994v12.012A1.997 1.997 0 0 1 18.01 18H1.99A1.994 1.994 0 0 1 0 16.006V3.994C0 2.893.898 2 1.99 2h16.02z" fill-rule="evenodd"/></symbol><symbol viewBox="0 0 20 20" id="zondicon-exclamation-outline"><path d="M2.929 17.071c3.905 3.905 10.237 3.905 14.142 0 3.905-3.905 3.905-10.237 0-14.142-3.905-3.905-10.237-3.905-14.142 0-3.905 3.905-3.905 10.237 0 14.142zm12.728-1.414A8 8 0 1 0 4.343 4.343a8 8 0 0 0 11.314 11.314zM9 5h2v6H9V5zm0 8h2v2H9v-2z" fill-rule="evenodd"/></symbol><symbol viewBox="0 0 20 20" id="zondicon-exclamation-solid"><path d="M2.929 17.071c3.905 3.905 10.237 3.905 14.142 0 3.905-3.905 3.905-10.237 0-14.142-3.905-3.905-10.237-3.905-14.142 0-3.905 3.905-3.905 10.237 0 14.142zM9 5h2v6H9V5zm0 8h2v2H9v-2z" fill-rule="evenodd"/></symbol><symbol viewBox="0 0 20 20" id="zondicon-explore"><path d="M10 20c5.523 0 10-4.477 10-10S15.523 0 10 0 0 4.477 0 10s4.477 10 10 10zM7.879 7.879l7.778-3.536-3.536 7.778-7.778 3.536L7.88 7.879zM10 11a1 1 0 1 0 0-2 1 1 0 0 0 0 2z" fill-rule="evenodd"/></symbol><symbol viewBox="0 0 20 20" id="zondicon-factory"><path d="M10.5 20H0V7l5 3.333V7l5 3.333V7l5 3.333V0h5v20h-9.5z" fill-rule="evenodd"/></symbol><symbol viewBox="0 0 20 20" id="zondicon-film"><path d="M0 3.994C0 2.893.898 2 1.99 2h16.02C19.108 2 20 2.895 20 3.994v12.012A1.997 1.997 0 0 1 18.01 18H1.99A1.994 1.994 0 0 1 0 16.006V3.994zM6 4h8v12H6V4zM2 5h2v2H2V5zm0 4h2v2H2V9zm0 4h2v2H2v-2zm14-8h2v2h-2V5zm0 4h2v2h-2V9zm0 4h2v2h-2v-2zM8 7l5 3-5 3V7z" fill-rule="evenodd"/></symbol><symbol viewBox="0 0 20 20" id="zondicon-filter"><path d="M12 12l8-8V0H0v4l8 8v8l4-4v-4z" fill-rule="evenodd"/></symbol><symbol viewBox="0 0 20 20" id="zondicon-flag"><path d="M7.667 12H2v8H0V0h12l.333 2H20l-3 6 3 6H8l-.333-2z" fill-rule="evenodd"/></symbol><symbol viewBox="0 0 20 20" id="zondicon-flashlight"><path d="M11 8a1 1 0 0 0-2 0v1a1 1 0 1 0 2 0V8zm2-1v10.994A2.004 2.004 0 0 1 11.002 20H8.998A2.001 2.001 0 0 1 7 17.994V7L5 5V3h10v2l-2 2zM5 0h10v2H5V0z" fill-rule="evenodd"/></symbol><symbol viewBox="0 0 20 20" id="zondicon-folder"><path d="M0 3.994C0 2.893.896 2 1.997 2H9l2 2h7.003A2 2 0 0 1 20 6.006v9.988A2.003 2.003 0 0 1 18.01 18H1.99A1.994 1.994 0 0 1 0 16.006V3.994z" fill-rule="evenodd"/></symbol><symbol viewBox="0 0 20 20" id="zondicon-folder-outline"><path d="M0 3.994C0 2.893.896 2 1.997 2H9l2 2h7.003A2 2 0 0 1 20 6.006v9.988A2.003 2.003 0 0 1 18.01 18H1.99A1.994 1.994 0 0 1 0 16.006V3.994zM2 6h16v10H2V6z" fill-rule="evenodd"/></symbol><symbol viewBox="0 0 20 20" id="zondicon-folder-outline-add"><path d="M9 10H7v2h2v2h2v-2h2v-2h-2V8H9v2zM0 3.994C0 2.893.896 2 1.997 2H9l2 2h7.003A2 2 0 0 1 20 6.006v9.988A2.003 2.003 0 0 1 18.01 18H1.99A1.994 1.994 0 0 1 0 16.006V3.994zM2 6h16v10H2V6z" fill-rule="evenodd"/></symbol><symbol viewBox="0 0 20 20" id="zondicon-format-bold"><path d="M3 17V1h8a5 5 0 0 1 3.877 8.158A5.5 5.5 0 0 1 11.5 19H3v-2zm7.5-6a2.5 2.5 0 1 1 0 5H7v-5h3.5zM7 4h2.995a2 2 0 0 1 0 4H7V4z" fill-rule="evenodd"/></symbol><symbol viewBox="0 0 20 20" id="zondicon-format-font-size"><path d="M16 9h4V7H10v2h4v8h2V9zM8 5h7V3H0v2h6v12h2V5z" fill-rule="evenodd"/></symbol><symbol viewBox="0 0 20 20" id="zondicon-format-italic"><path d="M8 1h9v2H8V1zm3 2h3L8 17H5l6-14zM2 17h9v2H2v-2z" fill-rule="evenodd"/></symbol><symbol viewBox="0 0 20 20" id="zondicon-format-underline"><path d="M16 9A6 6 0 1 1 4 9V1h3v8a3 3 0 0 0 6 0V1h3v8zM2 17h16v2H2v-2z" fill-rule="evenodd"/></symbol><symbol viewBox="0 0 20 20" id="zondicon-forward"><path d="M1 5l9 5-9 5V5zm9 0l9 5-9 5V5z" fill-rule="evenodd"/></symbol><symbol viewBox="0 0 20 20" id="zondicon-forward-step"><path d="M13 5h3v10h-3V5zM4 5l9 5-9 5V5z" fill-rule="evenodd"/></symbol><symbol viewBox="0 0 20 20" id="zondicon-globe"><path d="M12 17.748a7.999 7.999 0 0 0 4-2.456V9h-.002A1.999 1.999 0 0 1 14 7.003V3.07a7.948 7.948 0 0 0-3-1.008v.933C11 4.102 10.1 5 9.008 5H9v1.002A1.999 1.999 0 0 1 7.003 8H7v2h3.002c1.104 0 1.998.894 1.998 2.005v5.743zm-4 0A8.003 8.003 0 0 1 2.252 8H4v2.501C4 11.335 4.672 12 5.5 12H6v.995C6 14.106 6.894 15 7.998 15H8v2.748zM10 20c5.523 0 10-4.477 10-10S15.523 0 10 0 0 4.477 0 10s4.477 10 10 10z" fill-rule="evenodd"/></symbol><symbol viewBox="0 0 20 20" id="zondicon-hand-stop"><path d="M17 16c0 2.21-1.787 4-3.993 4H6.993A3.997 3.997 0 0 1 3 15.99V3.995C3 3.445 3.444 3 4 3c.552 0 1 .456 1 .995V10h1V1.996C6 1.446 6.444 1 7 1c.552 0 1 .445 1 .996V10h1V1.002a.999.999 0 1 1 2 0V10h1V1.996c0-.55.444-.996 1-.996.552 0 1 .445 1 .996V15h1V8.997c0-.55.444-.997 1-.997h1v8z" fill-rule="evenodd"/></symbol><symbol viewBox="0 0 20 20" id="zondicon-hard-drive"><path d="M15 12a5 5 0 1 1-2.608-4.392L15 5v7zM2 1.99C2 .892 2.895 0 3.994 0h12.012C17.107 0 18 .898 18 1.99v16.02c0 1.099-.895 1.99-1.994 1.99H3.994A1.997 1.997 0 0 1 2 18.01V1.99zM10 14a2 2 0 1 0 0-4 2 2 0 0 0 0 4zM6 3h4v2H6V3zM4 3a1 1 0 1 0 0-2 1 1 0 0 0 0 2zm0 16a1 1 0 1 0 0-2 1 1 0 0 0 0 2zm12 0a1 1 0 1 0 0-2 1 1 0 0 0 0 2zm0-16a1 1 0 1 0 0-2 1 1 0 0 0 0 2z" fill-rule="evenodd"/></symbol><symbol viewBox="0 0 20 20" id="zondicon-headphones"><path d="M16 17v2h2c1.112 0 2-.895 2-1.998v-4.004A1.994 1.994 0 0 0 18 11v2.5V8h-2v9zM4 17v2H2c-1.105 0-2-.887-2-1.998v-4.004C0 11.895.888 11 2 11v2.5V8h2v9zm14-9A8 8 0 1 0 2 8h2a6 6 0 1 1 12 0h2zm-6 2h3v10h-3V10zm-7 0h3v10H5V10z" fill-rule="evenodd"/></symbol><symbol viewBox="0 0 20 20" id="zondicon-home"><path d="M17 10h3L10 0 0 10h3v10h14V10zm-9 4h4v6H8v-6z" fill-rule="evenodd"/></symbol><symbol viewBox="0 0 20 20" id="zondicon-hot"><path d="M10 0s8 7.582 8 12a8 8 0 1 1-16 0c0-1.493.913-3.347 2.123-5.148A3 3 0 0 0 10 6.002V.001zM8 0a3 3 0 1 0 0 6V0z" fill-rule="evenodd"/></symbol><symbol viewBox="0 0 20 20" id="zondicon-hour-glass"><path d="M17 18a7 7 0 0 0-4-6.326V8.326A7 7 0 0 0 17 2h2V0H1v2h2a7 7 0 0 0 4 6.326v3.348A7 7 0 0 0 3 18H1v2h18v-2h-2zM15 2a5.002 5.002 0 0 1-4 4.9V10H9V6.9A5.002 5.002 0 0 1 5 2h10z" fill-rule="evenodd"/></symbol><symbol viewBox="0 0 20 20" id="zondicon-inbox"><path d="M14 14h4V2H2v12h4v.002A2 2 0 0 0 7.998 16h4.004A1.993 1.993 0 0 0 14 14.002V14zM0 1.99C0 .892.898 0 1.99 0h16.02C19.108 0 20 .898 20 1.99v16.02c0 1.099-.898 1.99-1.99 1.99H1.99A1.995 1.995 0 0 1 0 18.01V1.99z" fill-rule="evenodd"/></symbol><symbol viewBox="0 0 20 20" id="zondicon-inbox-check"><path d="M14 14h4V2H2v12h4v.002A2 2 0 0 0 7.998 16h4.004A1.993 1.993 0 0 0 14 14.002V14zM0 1.99C0 .892.898 0 1.99 0h16.02C19.108 0 20 .898 20 1.99v16.02c0 1.099-.898 1.99-1.99 1.99H1.99A1.995 1.995 0 0 1 0 18.01V1.99zM5 9l2-2 2 2 4-4 2 2-6 6-4-4z" fill-rule="evenodd"/></symbol><symbol viewBox="0 0 20 20" id="zondicon-inbox-download"><path d="M14 14h4V2H2v12h4v.002A2 2 0 0 0 7.998 16h4.004A1.993 1.993 0 0 0 14 14.002V14zM0 1.99C0 .892.898 0 1.99 0h16.02C19.108 0 20 .898 20 1.99v16.02c0 1.099-.898 1.99-1.99 1.99H1.99A1.995 1.995 0 0 1 0 18.01V1.99zM10 12l4-4H6l4 4zM9 8h2V5H9v3z" fill-rule="evenodd"/></symbol><symbol viewBox="0 0 20 20" id="zondicon-inbox-full"><path d="M14 14h4V2H2v12h4v.002A2 2 0 0 0 7.998 16h4.004A1.993 1.993 0 0 0 14 14.002V14zM0 1.99C0 .892.898 0 1.99 0h16.02C19.108 0 20 .898 20 1.99v16.02c0 1.099-.898 1.99-1.99 1.99H1.99A1.995 1.995 0 0 1 0 18.01V1.99zM4 4h12v2H4V4zm0 3h12v2H4V7zm0 3h12v2H4v-2z" fill-rule="evenodd"/></symbol><symbol viewBox="0 0 20 20" id="zondicon-indent-decrease"><path d="M1 1h18v2H1V1zm6 8h12v2H7V9zm-6 8h18v2H1v-2zM7 5h12v2H7V5zm0 8h12v2H7v-2zM5 6l-4 4 4 4V6z" fill-rule="evenodd"/></symbol><symbol viewBox="0 0 20 20" id="zondicon-indent-increase"><path d="M1 1h18v2H1V1zm6 8h12v2H7V9zm-6 8h18v2H1v-2zM7 5h12v2H7V5zm0 8h12v2H7v-2zM1 6l4 4-4 4V6z" fill-rule="evenodd"/></symbol><symbol viewBox="0 0 20 20" id="zondicon-information-outline"><path d="M2.929 17.071c3.905 3.905 10.237 3.905 14.142 0 3.905-3.905 3.905-10.237 0-14.142-3.905-3.905-10.237-3.905-14.142 0-3.905 3.905-3.905 10.237 0 14.142zm12.728-1.414A8 8 0 1 0 4.343 4.343a8 8 0 0 0 11.314 11.314zM9 11V9h2v6H9v-4zm0-6h2v2H9V5z" fill-rule="evenodd"/></symbol><symbol viewBox="0 0 20 20" id="zondicon-information-solid"><path d="M2.929 17.071c3.905 3.905 10.237 3.905 14.142 0 3.905-3.905 3.905-10.237 0-14.142-3.905-3.905-10.237-3.905-14.142 0-3.905 3.905-3.905 10.237 0 14.142zM9 11V9h2v6H9v-4zm0-6h2v2H9V5z" fill-rule="evenodd"/></symbol><symbol viewBox="0 0 20 20" id="zondicon-key"><path d="M8.257 7.743a6 6 0 1 1 4 4L10 14H8v2H6v2l-2 2H0v-4l8.257-8.257zm8.864-.622a3 3 0 0 0-4.243-4.243l4.243 4.243z" fill-rule="evenodd"/></symbol><symbol viewBox="0 0 20 20" id="zondicon-keyboard"><path d="M0 6.009C0 4.899.898 4 1.99 4h16.02C19.108 4 20 4.902 20 6.009v7.982c0 1.11-.898 2.009-1.99 2.009H1.99A2.002 2.002 0 0 1 0 13.991V6.01zM2 6h2v2H2V6zm1 3h2v2H3V9zm-1 3h2v2H2v-2zm3 0h10v2H5v-2zm11 0h2v2h-2v-2zM6 9h2v2H6V9zm3 0h2v2H9V9zm3 0h2v2h-2V9zm3 0h2v2h-2V9zM5 6h2v2H5V6zm3 0h2v2H8V6zm3 0h2v2h-2V6zm3 0h4v2h-4V6z" fill-rule="evenodd"/></symbol><symbol viewBox="0 0 20 20" id="zondicon-layers"><path d="M10 1l10 6-10 6L0 7l10-6zm6.667 10L20 13l-10 6-10-6 3.333-2L10 15l6.667-4z" fill-rule="evenodd"/></symbol><symbol viewBox="0 0 20 20" id="zondicon-library"><path d="M0 6l10-6 10 6v2H0V6zm0 12h20v2H0v-2zm2-2h16v2H2v-2zm0-8h4v8H2V8zm6 0h4v8H8V8zm6 0h4v8h-4V8z" fill-rule="evenodd"/></symbol><symbol viewBox="0 0 20 20" id="zondicon-light-bulb"><path d="M11 11.9A5.002 5.002 0 0 0 10 2a5 5 0 0 0-1 9.9V14h2v-2.1zm2 1.426a7 7 0 1 0-6 0V16h6v-2.674zM7 17h6v1.5c0 .828-.665 1.5-1.499 1.5H8.5A1.496 1.496 0 0 1 7 18.5V17z" fill-rule="evenodd"/></symbol><symbol viewBox="0 0 20 20" id="zondicon-link"><path d="M13.9 11a5.001 5.001 0 0 0-4.895-6h-4.01a5.001 5.001 0 0 0 0 10h1.106a7.014 7.014 0 0 1-1.436-2.019A3.003 3.003 0 0 1 2 10c0-1.657 1.349-3 3-3h4a3.002 3.002 0 0 1 2.829 4H13.9zM6.1 9a5.001 5.001 0 0 0 4.895 6h4.01a5.001 5.001 0 0 0 0-10h-1.104a7.014 7.014 0 0 1 1.435 2.019A3.003 3.003 0 0 1 18 10c0 1.657-1.349 3-3 3h-4a3.002 3.002 0 0 1-2.829-4H6.1z" fill-rule="evenodd"/></symbol><symbol viewBox="0 0 20 20" id="zondicon-list"><path d="M1 4h2v2H1V4zm4 0h14v2H5V4zM1 9h2v2H1V9zm4 0h14v2H5V9zm-4 5h2v2H1v-2zm4 0h14v2H5v-2z" fill-rule="evenodd"/></symbol><symbol viewBox="0 0 20 20" id="zondicon-list-add"><path d="M15 9h-3v2h3v3h2v-3h3V9h-3V6h-2v3zM0 3h10v2H0V3zm0 8h10v2H0v-2zm0-4h10v2H0V7zm0 8h10v2H0v-2z" fill-rule="evenodd"/></symbol><symbol viewBox="0 0 20 20" id="zondicon-location"><path d="M10 20s7-9.134 7-13A7 7 0 0 0 3 7c0 3.866 7 13 7 13zm0-11a2 2 0 1 0 0-4 2 2 0 0 0 0 4z" fill-rule="evenodd"/></symbol><symbol viewBox="0 0 20 20" id="zondicon-location-current"><path d="M0 0l20 8-8 4-2 8z" fill-rule="evenodd"/></symbol><symbol viewBox="0 0 20 20" id="zondicon-location-food"><path d="M18 11v7.008c0 1.1-.888 1.992-2 1.992-1.105 0-2-.9-2-1.992V13h-2V2.999A3.002 3.002 0 0 1 15 0h3v11zM4 10h-.002A2 2 0 0 1 2 7.995V.99C2 .445 2.444 0 3 0a1 1 0 0 1 1 .99V5h1V.99C5 .445 5.444 0 6 0a1 1 0 0 1 1 .99V5h1V.99C8 .445 8.444 0 9 0a1 1 0 0 1 1 .99v7.005A1.996 1.996 0 0 1 8.002 10H8v8.008C8 19.108 7.112 20 6 20c-1.105 0-2-.9-2-1.992V10z" fill-rule="evenodd"/></symbol><symbol viewBox="0 0 20 20" id="zondicon-location-gas-station"><path d="M13 18V1.99C13 .899 12.1 0 10.991 0H3.01A2.001 2.001 0 0 0 1 1.99V18H0v2h14v-2h-1zM3 2h8v6H3V2zm10 8h.999c1.105 0 2.001.898 2.001 1.998v3.011c0 .547.444.991 1 .991a1 1 0 0 0 1-.99V10l-2-2V6l-2-2 1-1 5 5v7c0 1.657-1.347 3-3 3-1.657 0-3-1.347-3-3v-3h-1v-2z" fill-rule="evenodd"/></symbol><symbol viewBox="0 0 20 20" id="zondicon-location-hotel"><path d="M2 12V2H0v16h2v-2h16v2h2v-6H2zm8-6h8a2 2 0 0 1 2 2.005V11H10V6zm-4 5a3 3 0 1 0 0-6 3 3 0 0 0 0 6z" fill-rule="evenodd"/></symbol><symbol viewBox="0 0 20 20" id="zondicon-location-marina"><path d="M8 1.878V0h2v16h10l-4 4H2l-2-4h8v-2H0v-.264A24.029 24.029 0 0 0 8 1.878zM19.97 14H10v-.364c1.264-1.901 2-4.183 2-6.636 0-2.453-.736-4.735-2-6.636V.163C15.57 2.418 19.582 7.719 19.97 14z" fill-rule="evenodd"/></symbol><symbol viewBox="0 0 20 20" id="zondicon-location-park"><path d="M5.329 12.774a4 4 0 0 1-2.327-7.648 4 4 0 0 1 5.71-3.742 3.5 3.5 0 0 1 6.259 1.66 2.502 2.502 0 0 1 2 2.075 4.002 4.002 0 1 1-2.703 7.487A5.02 5.02 0 0 1 12 14.584V18l2 1v1H6v-1l2-1v-3l-2.671-2.226zM5 10h3v3l-3-3z" fill-rule="evenodd"/></symbol><symbol viewBox="0 0 20 20" id="zondicon-location-restroom"><path d="M12 16H9l2-4.5V8.998A2 2 0 0 1 12.998 7h2.004A2 2 0 0 1 17 8.998V11.5l2 4.5h-3v4h-4v-4zm-5-3h2V8.998A2 2 0 0 0 7.002 7H2.998A1.993 1.993 0 0 0 1 8.998V13h2v7h4v-7zM5 6a3 3 0 1 0 0-6 3 3 0 0 0 0 6zm9 0a3 3 0 1 0 0-6 3 3 0 0 0 0 6z" fill-rule="evenodd"/></symbol><symbol viewBox="0 0 20 20" id="zondicon-location-shopping"><path d="M16 6A6 6 0 1 0 4 6v2H2L0 20h20L18 8h-2V6zm-2 0a4 4 0 1 0-8 0v2h8V6zM4 10h2v2H4v-2zm10 0h2v2h-2v-2z" fill-rule="evenodd"/></symbol><symbol viewBox="0 0 20 20" id="zondicon-lock-closed"><path d="M11 14.732a2 2 0 1 0-2 0V17h2v-2.268zM13 6a3 3 0 0 0-6 0v2h6V6zM4 8V6a6 6 0 1 1 12 0v2h1.005C18.107 8 19 8.902 19 10.009v7.982c0 1.11-.893 2.009-1.995 2.009H2.995A2.004 2.004 0 0 1 1 17.991V10.01C1 8.899 1.893 8 2.995 8H4z" fill-rule="evenodd"/></symbol><symbol viewBox="0 0 20 20" id="zondicon-lock-open"><path d="M11 14.732a2 2 0 1 0-2 0V17h2v-2.268zM13 6a3 3 0 0 0-6 0v2h6V6zM4 8V6a6 6 0 1 1 12 0h-3v2h4.005C18.107 8 19 8.902 19 10.009v7.982c0 1.11-.893 2.009-1.995 2.009H2.995A2.004 2.004 0 0 1 1 17.991V10.01C1 8.899 1.893 8 2.995 8H4z" fill-rule="evenodd"/></symbol><symbol viewBox="0 0 20 20" id="zondicon-map"><path d="M0 0l6 4 8-4 6 4v16l-6-4-8 4-6-4V0zm7 6l6-3v11l-6 3V6z" fill-rule="evenodd"/></symbol><symbol viewBox="0 0 20 20" id="zondicon-menu"><path d="M0 3h20v2H0V3zm0 6h20v2H0V9zm0 6h20v2H0v-2z" fill-rule="evenodd"/></symbol><symbol viewBox="0 0 20 20" id="zondicon-mic"><path d="M9 18v-1.062C5.054 16.445 2 13.071 2 9h2v.002A5.997 5.997 0 0 0 10 15c3.307 0 6-2.685 6-5.998V9h2c0 4.079-3.06 7.445-7 7.938V18h3v2H6v-2h3zM6 4.007A4.006 4.006 0 0 1 10 0c2.21 0 4 1.794 4 4.007v4.986A4.006 4.006 0 0 1 10 13c-2.21 0-4-1.794-4-4.007V4.007z" fill-rule="evenodd"/></symbol><symbol viewBox="0 0 20 20" id="zondicon-minus-outline"><path d="M10 20c5.523 0 10-4.477 10-10S15.523 0 10 0 0 4.477 0 10s4.477 10 10 10zm0-2a8 8 0 1 0 0-16 8 8 0 0 0 0 16zm5-9v2H5V9h10z" fill-rule="evenodd"/></symbol><symbol viewBox="0 0 20 20" id="zondicon-minus-solid"><path d="M10 20c5.523 0 10-4.477 10-10S15.523 0 10 0 0 4.477 0 10s4.477 10 10 10zm5-11v2H5V9h10z" fill-rule="evenodd"/></symbol><symbol viewBox="0 0 20 20" id="zondicon-mobile-devices"><path d="M17 6V1.99C17 .899 16.107 0 15.006 0H2.994C1.894 0 1 .891 1 1.99v16.02C1 19.101 1.893 20 2.994 20h8.509H8v-4H3V2h12v3h2v1c1.105 0 2 .897 2 2.006v9.988A1.998 1.998 0 0 1 17 20h-6c-1.105 0-2-.897-2-2.006V8.006C9 6.898 9.887 6 11 6h6zm-6 2h6v8h-6V8zm3 11a1 1 0 1 0 0-2 1 1 0 0 0 0 2z" fill-rule="evenodd"/></symbol><symbol viewBox="0 0 20 20" id="zondicon-mood-happy"><path d="M10 20c5.523 0 10-4.477 10-10S15.523 0 10 0 0 4.477 0 10s4.477 10 10 10zm0-2a8 8 0 1 0 0-16 8 8 0 0 0 0 16zM6.5 9a1.5 1.5 0 1 0 0-3 1.5 1.5 0 0 0 0 3zm7 0a1.5 1.5 0 1 0 0-3 1.5 1.5 0 0 0 0 3zm2.159 3A6.002 6.002 0 0 1 4.34 12h11.32z" fill-rule="evenodd"/></symbol><symbol viewBox="0 0 20 20" id="zondicon-mood-sad"><path d="M10 20c5.523 0 10-4.477 10-10S15.523 0 10 0 0 4.477 0 10s4.477 10 10 10zm0-2a8 8 0 1 0 0-16 8 8 0 0 0 0 16zM6.5 9a1.5 1.5 0 1 0 0-3 1.5 1.5 0 0 0 0 3zm7 0a1.5 1.5 0 1 0 0-3 1.5 1.5 0 0 0 0 3zm2.159 6A6.002 6.002 0 0 0 4.34 15h11.32z" fill-rule="evenodd"/></symbol><symbol viewBox="0 0 20 20" id="zondicon-mouse"><path d="M11 9V.083C13.838.557 16 3.018 16 6v7.998A6.005 6.005 0 0 1 10 20c-3.314 0-6-2.677-6-6V6A6.007 6.007 0 0 1 9 .084V9H4v2h12V9h-5z" fill-rule="evenodd"/></symbol><symbol viewBox="0 0 20 20" id="zondicon-music-notes"><path d="M18 4.286L8 5.714V17a3 3 0 0 1-3 3H3a3 3 0 0 1 0-6h2c.35 0 .687.06 1 .17V2l14-2v15a3 3 0 0 1-3 3h-2a3 3 0 0 1 0-6h2c.35 0 .687.06 1 .17V4.287z" fill-rule="evenodd"/></symbol><symbol viewBox="0 0 20 20" id="zondicon-navigation-more"><path d="M4 12a2 2 0 1 0 0-4 2 2 0 0 0 0 4zm6 0a2 2 0 1 0 0-4 2 2 0 0 0 0 4zm6 0a2 2 0 1 0 0-4 2 2 0 0 0 0 4z" fill-rule="evenodd"/></symbol><symbol viewBox="0 0 20 20" id="zondicon-network"><path d="M17.748 12a8.047 8.047 0 0 0 0-4h-3.816c.045.646.068 1.315.068 2s-.023 1.354-.068 2h3.816zm-.818 2a8.027 8.027 0 0 1-4.17 3.51c.42-.96.741-2.158.951-3.51h3.219zm-8.85-2a24.61 24.61 0 0 1 0-4h3.838a24.61 24.61 0 0 1 0 4H8.08zm.251 2c.413 2.392 1.127 4 1.668 4 .54 0 1.255-1.608 1.668-4H8.332zm-6.08-2A8.014 8.014 0 0 1 2 10c0-.69.088-1.36.252-2h3.816A28.81 28.81 0 0 0 6 10c0 .685.023 1.354.068 2H2.252zm.818 2a8.027 8.027 0 0 0 4.17 3.51c-.42-.96-.741-2.158-.951-3.51H3.07zm13.86-8a8.027 8.027 0 0 0-4.17-3.51c.42.96.741 2.158.951 3.51h3.219zM8.332 6C8.745 3.608 9.46 2 10 2s1.255 1.608 1.668 4H8.332zM3.07 6a8.027 8.027 0 0 1 4.17-3.51c-.42.96-.741 2.158-.951 3.51H3.07zM10 20c5.523 0 10-4.477 10-10S15.523 0 10 0 0 4.477 0 10s4.477 10 10 10z" fill-rule="evenodd"/></symbol><symbol viewBox="0 0 20 20" id="zondicon-news-paper"><path d="M4 10h8v2H4v-2zm0 4h8v2H4v-2zM4 4h8v4H4V4zm12-2V0H0v17.006A2.999 2.999 0 0 0 3 20h14c1.653 0 3-1.34 3-2.993V2h-4zm0 2v13.007c0 .548.444.993 1 .993.552 0 1-.445 1-1V4h-2zM2 2h12v15.006c0 .348.06.683.17.994H3.007A1 1 0 0 1 2 17.007V2z" fill-rule="evenodd"/></symbol><symbol viewBox="0 0 20 20" id="zondicon-notification"><path d="M8.027 2.332A6.003 6.003 0 0 0 4 8v6l-3 2v1h18v-1l-3-2V8a6.003 6.003 0 0 0-4.027-5.668 2 2 0 1 0-3.945 0zM12 18a2 2 0 1 1-4 0h4z" fill-rule="evenodd"/></symbol><symbol viewBox="0 0 20 20" id="zondicon-notifications-outline"><path d="M14 8a4 4 0 1 0-8 0v7h8V8zM8.027 2.332A6.003 6.003 0 0 0 4 8v6l-3 2v1h18v-1l-3-2V8a6.003 6.003 0 0 0-4.027-5.668 2 2 0 1 0-3.945 0zM12 18a2 2 0 1 1-4 0h4z" fill-rule="evenodd"/></symbol><symbol viewBox="0 0 20 20" id="zondicon-paste"><path d="M10.503 20H1.994A1.995 1.995 0 0 1 0 18.006V5.994C0 4.893.895 4 1.994 4H3V3l2.027-.405a3 3 0 0 1 5.946 0L13 3v1h1.006C15.107 4 16 4.895 16 5.994V7h-2V6h-1v1H3V6H2v12h5v2h3.503zM8 4a1 1 0 1 0 0-2 1 1 0 0 0 0 2zm2.006 4h7.988C19.102 8 20 8.897 20 10.006v7.988A2.005 2.005 0 0 1 17.994 20h-7.988A2.005 2.005 0 0 1 8 17.994v-7.988C8 8.898 8.897 8 10.006 8zM10 10h8v8h-8v-8z" fill-rule="evenodd"/></symbol><symbol viewBox="0 0 20 20" id="zondicon-pause"><path d="M5 4h3v12H5V4zm7 0h3v12h-3V4z" fill-rule="evenodd"/></symbol><symbol viewBox="0 0 20 20" id="zondicon-pause-outline"><path d="M2.929 17.071c3.905 3.905 10.237 3.905 14.142 0 3.905-3.905 3.905-10.237 0-14.142-3.905-3.905-10.237-3.905-14.142 0-3.905 3.905-3.905 10.237 0 14.142zm12.728-1.414A8 8 0 1 0 4.343 4.343a8 8 0 0 0 11.314 11.314zM7 6h2v8H7V6zm4 0h2v8h-2V6z" fill-rule="evenodd"/></symbol><symbol viewBox="0 0 20 20" id="zondicon-pause-solid"><path d="M2.929 17.071c3.905 3.905 10.237 3.905 14.142 0 3.905-3.905 3.905-10.237 0-14.142-3.905-3.905-10.237-3.905-14.142 0-3.905 3.905-3.905 10.237 0 14.142zM7 6h2v8H7V6zm4 0h2v8h-2V6z" fill-rule="evenodd"/></symbol><symbol viewBox="0 0 20 20" id="zondicon-pen-tool"><path d="M11 9.268V0H9v9.268a2 2 0 1 0 2 0zM3 11L9 0h2l6 11-4 6H7l-4-6zm3 7h8v2H6v-2z" fill-rule="evenodd"/></symbol><symbol viewBox="0 0 20 20" id="zondicon-phone"><path d="M11.174 16.826a15.053 15.053 0 0 1-8-8l2.12-2.12C5.686 6.314 6 5.556 6 5.009V.991A1 1 0 0 0 5 0H1.002A1 1 0 0 0 0 1.001V3c0 9.389 7.611 17 17 17h1.999A.998.998 0 0 0 20 18.998V15a1 1 0 0 0-.99-1h-4.02c-.546 0-1.304.314-1.696.706l-2.12 2.12z" fill-rule="evenodd"/></symbol><symbol viewBox="0 0 20 20" id="zondicon-photo"><path d="M11 13l-3-3-6 6h16l-5-5-2 2zM0 3.994C0 2.893.898 2 1.99 2h16.02C19.108 2 20 2.895 20 3.994v12.012A1.997 1.997 0 0 1 18.01 18H1.99A1.994 1.994 0 0 1 0 16.006V3.994zM15 9a2 2 0 1 0 0-4 2 2 0 0 0 0 4z" fill-rule="evenodd"/></symbol><symbol viewBox="0 0 20 20" id="zondicon-pin"><path d="M3 0h14v1l-3 1v8l3 1v1H3v-1l3-1V2L3 1V0zm6 12h2v7l-1 1-1-1v-7z" fill-rule="evenodd"/></symbol><symbol viewBox="0 0 20 20" id="zondicon-play"><path d="M4 4l12 6-12 6z" fill-rule="evenodd"/></symbol><symbol viewBox="0 0 20 20" id="zondicon-play-outline"><path d="M2.929 17.071c3.905 3.905 10.237 3.905 14.142 0 3.905-3.905 3.905-10.237 0-14.142-3.905-3.905-10.237-3.905-14.142 0-3.905 3.905-3.905 10.237 0 14.142zm12.728-1.414A8 8 0 1 0 4.343 4.343a8 8 0 0 0 11.314 11.314zM7 6l8 4-8 4V6z" fill-rule="evenodd"/></symbol><symbol viewBox="0 0 20 20" id="zondicon-playlist"><path d="M14 14.17c-.313-.11-.65-.17-1-.17h-2a3 3 0 0 0 0 6h2a3 3 0 0 0 3-3V4.667L20 4V0l-6 1v13.17zM0 3h12v2H0V3zm0 4h12v2H0V7zm0 4h12v2H0v-2zm0 4h6v2H0v-2z" fill-rule="evenodd"/></symbol><symbol viewBox="0 0 20 20" id="zondicon-plugin"><path d="M20 14v4.006A1.995 1.995 0 0 1 18.006 20H14v-2.002A1.994 1.994 0 0 0 12 16c-1.112 0-2 .895-2 1.998V20H5.994A1.995 1.995 0 0 1 4 18.006V14H1.998A1.994 1.994 0 0 1 0 12c0-1.105.887-2 1.998-2H4V5.994C4 4.893 4.895 4 5.994 4H10V1.998C10 .895 10.888 0 12 0c1.105 0 2 .887 2 1.998V4h4.006C19.107 4 20 4.895 20 5.994V10h-2.002A1.994 1.994 0 0 0 16 12c0 1.112.895 2 1.998 2H20z" fill-rule="evenodd"/></symbol><symbol viewBox="0 0 20 20" id="zondicon-portfolio"><path d="M9 12H1v6.002C1 19.113 1.893 20 2.995 20h14.01A1.996 1.996 0 0 0 19 18.002V12h-8v2H9v-2zm0-1H0V4.998C0 3.895.898 3 1.99 3H6V2c0-1.105.887-2 1.998-2h4.004C13.105 0 14 .888 14 2v1h4.01A1.99 1.99 0 0 1 20 4.998V11h-9V9H9v2zm3-8V2H8v1h4z" fill-rule="evenodd"/></symbol><symbol viewBox="0 0 20 20" id="zondicon-printer"><path d="M16 16h4V6H0v10h4v-6h12v6zM4 10h12v10H4V10zm2 2h8v6H6v-6zM4 0h12v5H4V0zM2 8h2v2H2V8zm4 0h2v2H6V8z" fill-rule="evenodd"/></symbol><symbol viewBox="0 0 20 20" id="zondicon-pylon"><path d="M17.4 18L12 0H8L2.6 18H0v2h20v-2h-2.6zm-3.2-4H5.8l-1.2 4h10.8l-1.2-4zm-2.4-8H8.2L7 10h6l-1.2-4z" fill-rule="evenodd"/></symbol><symbol viewBox="0 0 20 20" id="zondicon-question"><path d="M14 7c0 .814-.425 1.84-1.004 2.418l-1.578 1.578C11.214 11.2 11 11.715 11 12v1H9v-1c0-.817.426-1.84 1.004-2.418l1.578-1.578C11.786 7.8 12 7.284 12 7a2 2 0 1 0-4 0H6a4 4 0 1 1 8 0zm-4 13c5.523 0 10-4.477 10-10S15.523 0 10 0 0 4.477 0 10s4.477 10 10 10zm-1-5h2v2H9v-2z" fill-rule="evenodd"/></symbol><symbol viewBox="0 0 20 20" id="zondicon-queue"><path d="M0 2h20v4H0V2zm0 8h20v2H0v-2zm0 6h20v2H0v-2z" fill-rule="evenodd"/></symbol><symbol viewBox="0 0 20 20" id="zondicon-radar"><path d="M12 10h8c0-2.56-.976-5.118-2.929-7.071A9.969 9.969 0 0 0 10 0v8a2 2 0 1 0 2 2zm7.9 1.414a9.956 9.956 0 0 1-2.829 5.657c-3.905 3.905-10.237 3.905-14.142 0-3.905-3.905-3.905-10.237 0-14.142A9.956 9.956 0 0 1 8.586.099v2.026a8 8 0 1 0 9.289 9.289H19.9zm-4.068 0a6 6 0 1 1-7.246-7.246v2.09a4 4 0 1 0 5.157 5.157h2.089z" fill-rule="evenodd"/></symbol><symbol viewBox="0 0 20 20" id="zondicon-radio"><path d="M20 9.003v8.991A2.003 2.003 0 0 1 18.01 20H1.99A1.998 1.998 0 0 1 0 17.994V8.006C0 6.898.898 6 1.99 6h13.807L.74 1.966 1.26.034 20 5.056v3.947zM15 18a3 3 0 1 0 0-6 3 3 0 0 0 0 6zM2 8h16v2H2V8zm1.5 10a1.5 1.5 0 1 0 0-3 1.5 1.5 0 0 0 0 3zm5 0a1.5 1.5 0 1 0 0-3 1.5 1.5 0 0 0 0 3zm6.5-1a2 2 0 1 0 0-4 2 2 0 0 0 0 4z" fill-rule="evenodd"/></symbol><symbol viewBox="0 0 20 20" id="zondicon-refresh"><path d="M10 3a7 7 0 0 0-4.95 11.95l1.414-1.414A5 5 0 0 1 10 5V3zm4.95 2.05A7 7 0 0 1 10 17v-2a5 5 0 0 0 3.536-8.536L14.95 5.05zM10 20l-4-4 4-4v8zm0-12l4-4-4-4v8z" fill-rule="evenodd"/></symbol><symbol viewBox="0 0 20 20" id="zondicon-reload"><path d="M14.657 15.657A8 8 0 1 1 17 10h-2a6 6 0 1 0-1.757 4.243l1.414 1.414zM12 10h8l-4 4-4-4z" fill-rule="evenodd"/></symbol><symbol viewBox="0 0 20 20" id="zondicon-reply"><path d="M15 17v-2.99A4.006 4.006 0 0 0 10.998 10H8v5L2 9l6-6v5h2.995A6.007 6.007 0 0 1 17 14v3h-2z" fill-rule="evenodd"/></symbol><symbol viewBox="0 0 20 20" id="zondicon-reply-all"><path d="M18 17v-2.99A4.006 4.006 0 0 0 13.998 10H11v5L5 9l6-6v5h2.995A6.007 6.007 0 0 1 20 14v3h-2zM6 6V3L0 9l6 6v-3L3 9l3-3z" fill-rule="evenodd"/></symbol><symbol viewBox="0 0 20 20" id="zondicon-repost"><path d="M4.992 4A1.99 1.99 0 0 0 3 5.998V12H0l4 4 4-4H5V6h7l2-2H4.992zM15 8h-3l4-4 4 4h-3v6.002A2 2 0 0 1 15.008 16H6l2-2h7V8z" fill-rule="evenodd"/></symbol><symbol viewBox="0 0 20 20" id="zondicon-save-disk"><path d="M0 1.99C0 .892.895 0 1.994 0H16l4 4v14.006A1.997 1.997 0 0 1 18.01 20H1.99A1.995 1.995 0 0 1 0 18.01V1.99zM5 2h10v6H5V2zm6 1h3v4h-3V3z" fill-rule="evenodd"/></symbol><symbol viewBox="0 0 20 20" id="zondicon-screen-full"><path d="M4.207 17.207L7 20H0v-7l2.793 2.793 4.328-4.329 1.415 1.415-4.329 4.328zM15.793 2.793L13 0h7v7l-2.793-2.793-4.328 4.329-1.415-1.415 4.329-4.328zm0 14.414L13 20h7v-7l-2.793 2.793-4.328-4.329-1.415 1.415 4.329 4.328zM4.207 2.793L7 0H0v7l2.793-2.793L7.12 8.536 8.536 7.12 4.207 2.793z" fill-rule="evenodd"/></symbol><symbol viewBox="0 0 20 20" id="zondicon-search"><path d="M11.192 12.606a7 7 0 1 1 1.414-1.414l1.41 1.41a1.991 1.991 0 0 1 1.932.518l2.832 2.831c.78.78.785 2.04-.002 2.827a1.994 1.994 0 0 1-2.827.002l-2.831-2.832a1.994 1.994 0 0 1-.518-1.932l-1.41-1.41zM7 12A5 5 0 1 0 7 2a5 5 0 0 0 0 10z" fill-rule="evenodd"/></symbol><symbol viewBox="0 0 20 20" id="zondicon-send"><path d="M0 0l20 10L0 20V0zm0 8l10 2-10 2V8z" fill-rule="evenodd"/></symbol><symbol viewBox="0 0 20 20" id="zondicon-share"><path d="M9 3.828V8H8v2H6v8h8v-8h-2V8h-1v8H9V8H6.009A2.01 2.01 0 0 0 4 10.009v7.982C4 19.098 4.9 20 6.009 20h7.982A2.01 2.01 0 0 0 16 17.991V10.01A2.01 2.01 0 0 0 13.991 8H11V3.828L14.071 6.9l1.414-1.414L10.707.707 10 0 4.515 5.485 5.929 6.9 9 3.83z" fill-rule="evenodd"/></symbol><symbol viewBox="0 0 20 20" id="zondicon-share-alt"><path d="M5.083 12.16a3 3 0 1 1 0-4.319l8.94-4.47a3 3 0 1 1 .895 1.789l-8.94 4.47a3.03 3.03 0 0 1 0 .74l8.94 4.47a3 3 0 1 1-.895 1.789l-8.94-4.47z" fill-rule="evenodd"/></symbol><symbol viewBox="0 0 20 20" id="zondicon-shield"><path d="M19 11c0 2.21-1.568 4.87-3.493 5.94L10 20l-5.507-3.06C2.563 15.87 1 13.206 1 11V3C4.376 3 7.492 1.885 9.999.002c2.507 1.884 5.624 3 9.001 3V11zm-9 1.084l-2.925 2.035 1.032-3.41-2.84-2.154 3.563-.072L10 5.117l1.17 3.366 3.563.072-2.84 2.153 1.032 3.411L10 12.084z" fill-rule="evenodd"/></symbol><symbol viewBox="0 0 20 20" id="zondicon-shopping-cart"><path d="M3 5l1.333 4H4a3 3 0 0 0 0 6h13v-2H4.007a1.001 1.001 0 1 1-.008-2H17l3-9H4V.997C4 .453 3.548 0 2.99 0H0v2h2l1 3zm2 15a2 2 0 1 0 0-4 2 2 0 0 0 0 4zm10 0a2 2 0 1 0 0-4 2 2 0 0 0 0 4z" fill-rule="evenodd"/></symbol><symbol viewBox="0 0 20 20" id="zondicon-show-sidebar"><path d="M7 3H2v14h5V3zm2 0h9v14H9V3zm-9-.005C0 1.893.898 1 1.99 1h16.02C19.108 1 20 1.893 20 2.995v14.01A1.997 1.997 0 0 1 18.01 19H1.99A1.993 1.993 0 0 1 0 17.005V2.995zM3 4h3v2H3V4zm0 3h3v2H3V7zm0 3h3v2H3v-2z" fill-rule="evenodd"/></symbol><symbol viewBox="0 0 20 20" id="zondicon-shuffle"><path d="M6.586 12.828L4.41 15.004c-.58.58-1.59.996-2.409.996H0v-2h2.001c.29 0 .792-.207.995-.41l2.176-2.176 1.414 1.414zM16 6h-2c-.29 0-.794.209-.996.41l-2.176 2.176-1.414-1.414 2.176-2.176C12.167 4.42 13.18 4 14 4h2V1l4 4-4 4V6zm0 10h-2c-.82 0-1.833-.42-2.41-.996L2.996 6.41C2.793 6.207 2.29 6 2.001 6H0V4h2.001c.819 0 1.83.417 2.41.996l8.593 8.594c.202.201.706.41.996.41h2v-3l4 4-4 4v-3z" fill-rule="evenodd"/></symbol><symbol viewBox="0 0 20 20" id="zondicon-star-full"><path d="M10 15l-5.878 3.09 1.123-6.545L.489 6.91l6.572-.955L10 0l2.939 5.955 6.572.955-4.756 4.635 1.123 6.545z" fill-rule="evenodd"/></symbol><symbol viewBox="0 0 20 20" id="zondicon-station"><path d="M11 11.732a2 2 0 1 0-2 0V20h2v-8.268zm3.243 2.51a6 6 0 1 0-8.485 0l1.414-1.414a4 4 0 1 1 5.657 0l1.414 1.415zm2.828 2.83A9.969 9.969 0 0 0 20 10c0-5.523-4.477-10-10-10S0 4.477 0 10a9.969 9.969 0 0 0 2.929 7.071l1.414-1.414a8 8 0 1 1 11.314 0l1.414 1.414z" fill-rule="evenodd"/></symbol><symbol viewBox="0 0 20 20" id="zondicon-store-front"><path d="M18 9.87V20H2V9.87c.309.085.643.13 1 .13a4.25 4.25 0 0 0 2-.508V14h10V9.493c.606.323 1.29.507 2 .507a3.78 3.78 0 0 0 1-.13zM3 0L.95 6.152C.422 7.73 1.342 9 3 9c1.653 0 3.148-1.33 3.33-2.972L7 0H3zm5 0l-.7 6.3C7.135 7.786 8.217 9 9.72 9h.56c1.506 0 2.586-1.209 2.42-2.7L12 0H8zm5 0l.67 6.028C13.852 7.672 15.343 9 17 9c1.653 0 2.575-1.275 2.05-2.848L17 0h-4z" fill-rule="evenodd"/></symbol><symbol viewBox="0 0 20 20" id="zondicon-stroke-width"><path d="M0 0h20v5H0V0zm0 7h20v4H0V7zm0 6h20v3H0v-3zm0 5h20v2H0v-2z" fill-rule="evenodd"/></symbol><symbol viewBox="0 0 20 20" id="zondicon-subdirectory-left"><path d="M18 12v1H8v5l-6-6 6-6v5h8V2h2z" fill-rule="evenodd"/></symbol><symbol viewBox="0 0 20 20" id="zondicon-subdirectory-right"><path d="M3.5 13H12v5l6-6-6-6v5H4V2H2v11z" fill-rule="evenodd"/></symbol><symbol viewBox="0 0 20 20" id="zondicon-swap"><path d="M9 10.268V4a4 4 0 1 1 8 0v12h3l-4 4-4-4h3V3.998A1.994 1.994 0 0 0 13 2c-1.112 0-2 .895-2 1.998V16a4 4 0 1 1-8 0V4H0l4-4 4 4H5v12c0 1.113.895 2 2 2 1.112 0 2-.895 2-2v-5.732z" fill-rule="evenodd"/></symbol><symbol viewBox="0 0 20 20" id="zondicon-tablet"><path d="M2 1.99C2 .892 2.895 0 3.994 0h12.012C17.107 0 18 .898 18 1.99v16.02c0 1.099-.895 1.99-1.994 1.99H3.994A1.997 1.997 0 0 1 2 18.01V1.99zM4 2h12v14H4V2zm6 17a1 1 0 1 0 0-2 1 1 0 0 0 0 2z" fill-rule="evenodd"/></symbol><symbol viewBox="0 0 20 20" id="zondicon-tag"><path d="M0 10V2l2-2h8l10 10-10 10L0 10zm4.5-4a1.5 1.5 0 1 0 0-3 1.5 1.5 0 0 0 0 3z" fill-rule="evenodd"/></symbol><symbol viewBox="0 0 20 20" id="zondicon-target"><path d="M17.938 9A8.004 8.004 0 0 0 11 2.062V7H9V2.062A8.004 8.004 0 0 0 2.062 9H7v2H2.062A8.004 8.004 0 0 0 9 17.938V13h2v4.938A8.004 8.004 0 0 0 17.938 11H13V9h4.938zM10 20c5.523 0 10-4.477 10-10S15.523 0 10 0 0 4.477 0 10s4.477 10 10 10z" fill-rule="evenodd"/></symbol><symbol viewBox="0 0 20 20" id="zondicon-text-box"><path d="M0 0h6v6H0V0zm2 2h2v2H2V2zm12-2h6v6h-6V0zm2 2h2v2h-2V2zm-2 12h6v6h-6v-6zm2 2h2v2h-2v-2zM0 14h6v6H0v-6zm2 2h2v2H2v-2zM6 2h8v2H6V2zm0 14h8v2H6v-2zM16 6h2v8h-2V6zM2 6h2v8H2V6zm5 1h6v2H7V7zm2 2h2v4H9V9z" fill-rule="evenodd"/></symbol><symbol viewBox="0 0 20 20" id="zondicon-text-decoration"><path d="M12 5h-2v12H8V3h8v2h-2v12h-2V5zM8 3a4 4 0 1 0 0 8V3z" fill-rule="evenodd"/></symbol><symbol viewBox="0 0 20 20" id="zondicon-thermometer"><path d="M11 11.17a3.001 3.001 0 1 1-2 0V7h2v4.17zm1-.635a4 4 0 1 1-4 0V4.01a2 2 0 1 1 4 0v6.526zm2-1.007a6 6 0 1 1-8 0V4c0-2.21 1.795-4 4-4 2.21 0 4 1.794 4 4v5.528z" fill-rule="evenodd"/></symbol><symbol viewBox="0 0 20 20" id="zondicon-thumbs-down"><path d="M11.001 20A1.995 1.995 0 0 1 9 18.002V12H1.997A1.994 1.994 0 0 1 0 10V8l2.297-6.124C2.685.84 3.902 0 5.009 0h7.982A2 2 0 0 1 15 2v8l-3 7v3h-.999zM17 10h3V0h-3v10z" fill-rule="evenodd"/></symbol><symbol viewBox="0 0 20 20" id="zondicon-thumbs-up"><path d="M11.001 0A1.995 1.995 0 0 0 9 1.998V8H1.997A1.994 1.994 0 0 0 0 10v2l2.297 6.124C2.685 19.16 3.902 20 5.009 20h7.982A2 2 0 0 0 15 18v-8l-3-7V0h-.999zM17 10h3v10h-3V10z" fill-rule="evenodd"/></symbol><symbol viewBox="0 0 20 20" id="zondicon-ticket"><path d="M20 12v5H0v-5a2 2 0 1 0 0-4V3h20v5a2 2 0 1 0 0 4zM3 5h14v10H3V5zm7 7.083l-2.924 2.035 1.031-3.41-2.839-2.152 3.562-.073L10 5.118l1.17 3.365 3.562.073-2.84 2.152 1.032 3.41L10 12.083z" fill-rule="evenodd"/></symbol><symbol viewBox="0 0 20 20" id="zondicon-time"><path d="M9 8.5V4h2v5.586l3.95 3.95-1.414 1.414L9 10.414V8.5zM10 20c5.523 0 10-4.477 10-10S15.523 0 10 0 0 4.477 0 10s4.477 10 10 10zm0-2a8 8 0 1 0 0-16 8 8 0 0 0 0 16z" fill-rule="evenodd"/></symbol><symbol viewBox="0 0 20 20" id="zondicon-timer"><path d="M14.906 5.68A7.96 7.96 0 0 0 11 4.062V2H9v2.062A8.001 8.001 0 0 0 10 20a8 8 0 0 0 6.32-12.906l1.458-1.458-1.414-1.414-1.458 1.458zM10 18a6 6 0 1 0 0-12 6 6 0 0 0 0 12zM7 0h6v2H7V0zm5.121 8.464l1.415 1.415L10 13.414 8.586 12l3.535-3.536z" fill-rule="evenodd"/></symbol><symbol viewBox="0 0 20 20" id="zondicon-translate"><path d="M7.414 9l.877-.876C9.26 7.154 10 5.37 10 4h2V2H7V0H5v2H0v2h8c0 .84-.529 2.114-1.124 2.71L6 7.585l-.876-.877A3.312 3.312 0 0 1 4.607 6h-2.2c.31.818.771 1.592 1.302 2.124L4.586 9l-3.293 3.293 1.414 1.414L6 10.414l2.82 2.82.831-1.997L7.414 9zm3.836 8L10 20H8l5-12h2l5 12h-2l-1.25-3h-5.5zm.833-2L14 10.4l1.917 4.6h-3.834z" fill-rule="evenodd"/></symbol><symbol viewBox="0 0 20 20" id="zondicon-trash"><path d="M2 2h16v2H2V2zm6-2h4l2 2H6l2-2zM3 6h14l-1 14H4L3 6zm5 2h1v10H8V8zm3 0h1v10h-1V8z" fill-rule="evenodd"/></symbol><symbol viewBox="0 0 20 20" id="zondicon-travel-bus"><path d="M13 18H7v1.001a.996.996 0 0 1-.999.999H4.999A.996.996 0 0 1 4 19.001V18h-.006A1.994 1.994 0 0 1 2 16.005V1.995C2 .893 2.895 0 3.994 0h12.012C17.107 0 18 .893 18 1.995v14.01A1.996 1.996 0 0 1 16.006 18H16v1.001a.996.996 0 0 1-.999.999h-1.002a.996.996 0 0 1-.999-.999V18zM4 5h5v6H4V5zm7 0h5v6h-5V5zM5 2h10v1H5V2zm.5 14a1.5 1.5 0 1 0 0-3 1.5 1.5 0 0 0 0 3zm9 0a1.5 1.5 0 1 0 0-3 1.5 1.5 0 0 0 0 3z" fill-rule="evenodd"/></symbol><symbol viewBox="0 0 20 20" id="zondicon-travel-car"><path d="M2 13.994v2.997A.998.998 0 0 0 2.999 18h1.002c.556 0 .999-.452.999-1.01V16h10v.99c0 .567.447 1.01.999 1.01h1.002c.556 0 .999-.452.999-1.01V11h1.008c.537 0 .992-.448.992-1 0-.556-.444-1-.992-1H18l-4-7H6L2 9H.992C.455 9 0 9.448 0 10c0 .556.444 1 .992 1H2v2.994zM15.857 9L13 4H7L4.143 9h11.714zM5.5 14a1.5 1.5 0 1 0 0-3 1.5 1.5 0 0 0 0 3zm9 0a1.5 1.5 0 1 0 0-3 1.5 1.5 0 0 0 0 3z" fill-rule="evenodd"/></symbol><symbol viewBox="0 0 20 20" id="zondicon-travel-case"><path d="M6 5H1.99C.899 5 0 5.898 0 7.006v9.988C0 18.103.891 19 1.99 19H3V5h1v14h12V5h1v14h1.01c1.092 0 1.99-.898 1.99-2.006V7.006A1.998 1.998 0 0 0 18.01 5H14V4c0-1.112-.895-2-1.998-2H7.998A1.994 1.994 0 0 0 6 4v1zm2-1h4v1H8V4z" fill-rule="evenodd"/></symbol><symbol viewBox="0 0 20 20" id="zondicon-travel-taxi-cab"><path d="M12 3V1H8v2H6l-4 7H.992C.455 10 0 10.448 0 11c0 .556.444 1 .992 1H2v5.991A.998.998 0 0 0 2.999 19h1.002c.556 0 .999-.452.999-1.01V17h10v.99c0 .567.447 1.01.999 1.01h1.002c.556 0 .999-.452.999-1.01V12h1.008c.537 0 .992-.448.992-1 0-.556-.444-1-.992-1H18l-4-7h-2zm3.857 7L13 5H7l-2.857 5h11.714zM5.5 15a1.5 1.5 0 1 0 0-3 1.5 1.5 0 0 0 0 3zm9 0a1.5 1.5 0 1 0 0-3 1.5 1.5 0 0 0 0 3z" fill-rule="evenodd"/></symbol><symbol viewBox="0 0 20 20" id="zondicon-travel-train"><path d="M12 18H8l-2 2H3l2-2a2 2 0 0 1-2-1.995V1.995A2 2 0 0 1 5.006 0h9.988A2 2 0 0 1 17 1.995v14.01A2 2 0 0 1 15 18l2 2h-3l-2-2zM5 5h10v6H5V5zm1.5 11a1.5 1.5 0 1 0 0-3 1.5 1.5 0 0 0 0 3zm7 0a1.5 1.5 0 1 0 0-3 1.5 1.5 0 0 0 0 3zM8 2h4v1H8V2z" fill-rule="evenodd"/></symbol><symbol viewBox="0 0 20 20" id="zondicon-travel-walk"><path d="M11 7l1.443 2.164c.312.468 1.009.836 1.566.836H17V8h-3l-1.443-2.164c-.312-.468-.931-1.085-1.393-1.393l-1.328-.886c-.468-.312-1.22-.326-1.696-.041L4 6v5h2V7l2-1-3 14h2l2.353-7.647L11 14v6h2v-8l-2.706-2.706L11 7zm1-3a2 2 0 1 0 0-4 2 2 0 0 0 0 4z" fill-rule="evenodd"/></symbol><symbol viewBox="0 0 20 20" id="zondicon-trophy"><path d="M15 9a3 3 0 0 0 3-3h2a5 5 0 0 1-5.1 4.999A5.006 5.006 0 0 1 11 14.9V17l5 2v1H4v-1l5-2v-2.1a5.006 5.006 0 0 1-3.9-3.901L5 11a5 5 0 0 1-5-5h2a3 3 0 0 0 3 3V4H2v2H0V2h5V0h10v2h5v4h-2V4h-3v5z" fill-rule="evenodd"/></symbol><symbol viewBox="0 0 20 20" id="zondicon-tuning"><path d="M17 16h2v-3h-6v3h2v4h2v-4zM1 9h6v3H1V9zm6-4h6v3H7V5zM3 0h2v8H3V0zm12 0h2v12h-2V0zM9 0h2v4H9V0zM3 12h2v8H3v-8zm6-4h2v12H9V8z" fill-rule="evenodd"/></symbol><symbol viewBox="0 0 20 20" id="zondicon-upload"><path d="M13 10v6H7v-6H2l8-8 8 8h-5zM0 18h20v2H0v-2z" fill-rule="evenodd"/></symbol><symbol viewBox="0 0 20 20" id="zondicon-usb"><path d="M17 8v1.994A1.999 1.999 0 0 1 14.994 12H11v4.268a2 2 0 1 1-2 0V14H5.006A1.999 1.999 0 0 1 3 11.994V9.732a2 2 0 1 1 2 0V12h4V4H7l3-4 3 4h-2v6h4V8h-1V4h4v4h-1z" fill-rule="evenodd"/></symbol><symbol viewBox="0 0 20 20" id="zondicon-user"><path d="M5 5.002A5.005 5.005 0 0 1 10 0c2.761 0 5 2.229 5 5.002v1.996A5.005 5.005 0 0 1 10 12c-2.761 0-5-2.229-5-5.002V5.002zM0 16.676A19.908 19.908 0 0 1 10 14c3.643 0 7.058.974 10 2.676V20H0v-3.324z" fill-rule="evenodd"/></symbol><symbol viewBox="0 0 20 20" id="zondicon-user-add"><path d="M2 6H0v2h2v2h2V8h2V6H4V4H2v2zm7 .002A3.003 3.003 0 0 1 12 3c1.657 0 3 1.339 3 3.002v1.996A3.003 3.003 0 0 1 12 11c-1.657 0-3-1.339-3-3.002V6.002zm11 9.139A15.926 15.926 0 0 0 12 13c-2.914 0-5.647.78-8 2.14V18h16v-2.86z" fill-rule="evenodd"/></symbol><symbol viewBox="0 0 20 20" id="zondicon-user-group"><path d="M7 8a4 4 0 1 0 0-8 4 4 0 0 0 0 8zm0 1a17.93 17.93 0 0 0-6.109 1.086L2 16h1.25L4 20h6l.75-4H12l1.109-5.914A17.93 17.93 0 0 0 7 9zm8.315.171L13.66 18h-1.25l-.375 2H16l.75-4H18l1.109-5.914a18.211 18.211 0 0 0-3.794-.915zM13 0a3.99 3.99 0 0 0-1.329.243A5.964 5.964 0 0 1 13 4a5.964 5.964 0 0 1-1.329 3.757c.418.147.86.243 1.329.243a4 4 0 0 0 0-8z" fill-rule="evenodd"/></symbol><symbol viewBox="0 0 20 20" id="zondicon-user-solid-circle"><path d="M10 20c5.523 0 10-4.477 10-10S15.523 0 10 0 0 4.477 0 10s4.477 10 10 10zM7 6.002A3.003 3.003 0 0 1 10 3c1.657 0 3 1.339 3 3.002v1.996A3.003 3.003 0 0 1 10 11c-1.657 0-3-1.339-3-3.002V6.002zm-3.653 8.442A15.941 15.941 0 0 1 10 13c2.374 0 4.627.517 6.653 1.444A7.992 7.992 0 0 1 10 18a7.992 7.992 0 0 1-6.653-3.556z" fill-rule="evenodd"/></symbol><symbol viewBox="0 0 20 20" id="zondicon-user-solid-square"><path d="M0 1.99C0 .892.898 0 1.99 0h16.02C19.108 0 20 .898 20 1.99v16.02c0 1.099-.898 1.99-1.99 1.99H1.99A1.995 1.995 0 0 1 0 18.01V1.99zm7 4.012A3.003 3.003 0 0 1 10 3c1.657 0 3 1.339 3 3.002v1.996A3.003 3.003 0 0 1 10 11c-1.657 0-3-1.339-3-3.002V6.002zm11 9.139A15.926 15.926 0 0 0 10 13c-2.914 0-5.647.78-8 2.14V18h16v-2.86z" fill-rule="evenodd"/></symbol><symbol viewBox="0 0 20 20" id="zondicon-vector"><path d="M12 4h4.268a2 2 0 1 1 0 2h-2.14a9.003 9.003 0 0 1 4.841 7.25 2 2 0 1 1-2.005.039 7.006 7.006 0 0 0-4.964-6V8H8v-.71a7.006 7.006 0 0 0-4.964 5.999A1.999 1.999 0 0 1 2 17a2 2 0 0 1-.97-3.75A9.003 9.003 0 0 1 5.874 6h-2.14a2 2 0 1 1 0-2H8V3h4v1z" fill-rule="evenodd"/></symbol><symbol viewBox="0 0 20 20" id="zondicon-video-camera"><path d="M0 3.994C0 2.893.895 2 1.994 2h12.012C15.107 2 16 2.895 16 3.994v12.012A1.995 1.995 0 0 1 14.006 18H1.994A1.995 1.995 0 0 1 0 16.006V3.994zM8 14a4 4 0 1 0 0-8 4 4 0 0 0 0 8zm0-2a2 2 0 1 0 0-4 2 2 0 0 0 0 4zm8-5l4-4v14l-4-4V7z" fill-rule="evenodd"/></symbol><symbol viewBox="0 0 20 20" id="zondicon-view-carousel"><path d="M14 5.5V4H6v12h8V5.5zm2 .5h2v8h-2V6zM4 6H2v8h2V6zm12 10v2H4v-2H0V4h4V2h12v2h4v12h-4z" fill-rule="evenodd"/></symbol><symbol viewBox="0 0 20 20" id="zondicon-view-column"><path d="M0 2h20v16H0V2zm2 2h16v12H2V4zm4 0h2v12H6V4zm6 0h2v12h-2V4z" fill-rule="evenodd"/></symbol><symbol viewBox="0 0 20 20" id="zondicon-view-hide"><path d="M16.617 6.212A11.049 11.049 0 0 1 19.8 10a11 11 0 0 1-9.8 6c-.971 0-1.913-.126-2.81-.362l1.774-1.773A4.005 4.005 0 0 0 14 10a4.02 4.02 0 0 0-.135-1.036l2.752-2.752zm-3.807-1.85A11.017 11.017 0 0 0 10 4a11 11 0 0 0-9.8 6 11.048 11.048 0 0 0 3.183 3.788l2.752-2.752A4.005 4.005 0 0 1 10 6c.358 0 .706.047 1.036.135l1.774-1.773zm3.554-2.14l1.414 1.414L3.636 17.778l-1.414-1.414L16.364 2.222z" fill-rule="evenodd"/></symbol><symbol viewBox="0 0 20 20" id="zondicon-view-list"><path d="M0 3h20v2H0V3zm0 4h20v2H0V7zm0 4h20v2H0v-2zm0 4h20v2H0v-2z" fill-rule="evenodd"/></symbol><symbol viewBox="0 0 20 20" id="zondicon-view-show"><path d="M19.8 10A11 11 0 0 0 10 4a11 11 0 0 0-9.8 6 11 11 0 0 0 9.8 6 11 11 0 0 0 9.8-6zM10 14a4 4 0 1 0 0-8 4 4 0 0 0 0 8zm0-2a2 2 0 1 0 0-4 2 2 0 0 0 0 4z" fill-rule="evenodd"/></symbol><symbol viewBox="0 0 20 20" id="zondicon-view-tile"><path d="M0 0h9v9H0V0zm2 2h5v5H2V2zm-2 9h9v9H0v-9zm2 2h5v5H2v-5zm9-13h9v9h-9V0zm2 2h5v5h-5V2zm-2 9h9v9h-9v-9zm2 2h5v5h-5v-5z" fill-rule="evenodd"/></symbol><symbol viewBox="0 0 20 20" id="zondicon-volume-down"><path d="M7 7H3v6h4l5 5V2L7 7zm8.536 6.536A4.984 4.984 0 0 0 17 10c0-1.38-.56-2.63-1.464-3.536L14.12 7.88A2.99 2.99 0 0 1 15 10a2.99 2.99 0 0 1-.879 2.121l1.415 1.415z" fill-rule="evenodd"/></symbol><symbol viewBox="0 0 20 20" id="zondicon-volume-mute"><path d="M9 7H5v6h4l5 5V2L9 7z" fill-rule="evenodd"/></symbol><symbol viewBox="0 0 20 20" id="zondicon-volume-off"><path d="M15 8.586l-2.121-2.122-1.415 1.415L13.586 10l-2.122 2.121 1.415 1.415L15 11.414l2.121 2.122 1.415-1.415L16.414 10l2.122-2.121-1.415-1.415L15 8.586zM4 7H0v6h4l5 5V2L4 7z" fill-rule="evenodd"/></symbol><symbol viewBox="0 0 20 20" id="zondicon-volume-up"><path d="M5 7H1v6h4l5 5V2L5 7zm11.364 9.364A8.972 8.972 0 0 0 19 10a8.972 8.972 0 0 0-2.636-6.364L14.95 5.05A6.978 6.978 0 0 1 17 10a6.978 6.978 0 0 1-2.05 4.95l1.414 1.414zm-2.828-2.828A4.984 4.984 0 0 0 15 10c0-1.38-.56-2.63-1.464-3.536L12.12 7.88A2.99 2.99 0 0 1 13 10a2.99 2.99 0 0 1-.879 2.121l1.415 1.415z" fill-rule="evenodd"/></symbol><symbol viewBox="0 0 20 20" id="zondicon-wallet"><path d="M0 3.994C0 2.893.893 2 1.995 2h15.012c.548 0 .993.444.993 1v1H2v1h17.007c.548 0 .993.447.993.999v9.998A2.001 2.001 0 0 1 18.01 18H1.99A1.994 1.994 0 0 1 0 16.006V3.994zM16.5 13a1.5 1.5 0 1 0 0-3 1.5 1.5 0 0 0 0 3z" fill-rule="evenodd"/></symbol><symbol viewBox="0 0 20 20" id="zondicon-watch"><path d="M11 9V7H9v4h4V9h-2zm3.82 6.075A6.98 6.98 0 0 0 17 10a6.98 6.98 0 0 0-2.18-5.075L14 0H6l-.82 4.925A6.98 6.98 0 0 0 3 10c0 1.998.837 3.8 2.18 5.075L6 20h8l.82-4.925zM10 15a5 5 0 1 0 0-10 5 5 0 0 0 0 10z" fill-rule="evenodd"/></symbol><symbol viewBox="0 0 20 20" id="zondicon-window"><path d="M0 2.995C0 1.893.898 1 1.99 1h16.02C19.108 1 20 1.893 20 2.995v14.01A1.997 1.997 0 0 1 18.01 19H1.99A1.993 1.993 0 0 1 0 17.005V2.995zM2 5h16v12H2V5z" fill-rule="evenodd"/></symbol><symbol viewBox="0 0 20 20" id="zondicon-window-new"><path d="M9 10H7v2h2v2h2v-2h2v-2h-2V8H9v2zM0 2.995C0 1.893.898 1 1.99 1h16.02C19.108 1 20 1.893 20 2.995v14.01A1.997 1.997 0 0 1 18.01 19H1.99A1.993 1.993 0 0 1 0 17.005V2.995zM2 5h16v12H2V5z" fill-rule="evenodd"/></symbol><symbol viewBox="0 0 20 20" id="zondicon-window-open"><path d="M0 2.995C0 1.893.898 1 1.99 1h16.02C19.108 1 20 1.893 20 2.995v14.01A1.997 1.997 0 0 1 18.01 19H1.99A1.993 1.993 0 0 1 0 17.005V2.995zM2 5h16v12H2V5zm8 3l4 5H6l4-5z" fill-rule="evenodd"/></symbol><symbol viewBox="0 0 20 20" id="zondicon-wrench"><path d="M9.422 7.094A5.002 5.002 0 0 0 3.026.405l3.948 3.949-2.828 2.828L.197 3.234a5.001 5.001 0 0 0 6.27 6.56l10.13 10.13 2.828-2.828L9.422 7.094z" fill-rule="evenodd"/></symbol><symbol viewBox="0 0 20 20" id="zondicon-zoom-in"><path d="M6 6H4v2h2v2h2V8h2V6H8V4H6v2zm5.192 6.606a7 7 0 1 1 1.414-1.414l1.41 1.41a1.991 1.991 0 0 1 1.932.518l2.832 2.831c.78.78.785 2.04-.002 2.827a1.994 1.994 0 0 1-2.827.002l-2.831-2.832a1.994 1.994 0 0 1-.518-1.932l-1.41-1.41zM7 12A5 5 0 1 0 7 2a5 5 0 0 0 0 10z" fill-rule="evenodd"/></symbol><symbol viewBox="0 0 20 20" id="zondicon-zoom-out"><path d="M11.192 12.606a7 7 0 1 1 1.414-1.414l1.41 1.41a1.991 1.991 0 0 1 1.932.518l2.832 2.831c.78.78.785 2.04-.002 2.827a1.994 1.994 0 0 1-2.827.002l-2.831-2.832a1.994 1.994 0 0 1-.518-1.932l-1.41-1.41zM7 12A5 5 0 1 0 7 2a5 5 0 0 0 0 10zM4 6h6v2H4V6z" fill-rule="evenodd"/></symbol></svg>
